<svg id="Capa_5" data-name="Capa 5" xmlns="http://www.w3.org/2000/svg" viewBox="0 0 761.03 296.95"><defs><style>.cls-1{fill:#fff;}.cls-2{fill:#fdfdff;}.cls-3{fill:#fdfdfd;}.cls-4{fill:none;stroke:#fff;stroke-miterlimit:10;stroke-width:3px;}</style></defs><path class="cls-1" d="M182.46,516.66l-10.75,0q-13,0-26.05,0c-.74,0-1.09-.14-1-.93a5.06,5.06,0,0,0,0-.78q0-111.93,0-223.88a2.41,2.41,0,0,1,1-.07H181.5c1.08,0,1.08,0,1.08,1.1v95c0,.34.12.71-.12,1H168.38c-.25-.35-.12-.75-.12-1.13q0-40.79,0-81.56a2.21,2.21,0,0,0-.1-1.14h0a8.39,8.39,0,0,0-2.4-.09c-2.22,0-4.44-.14-6.65.09,0,.36,0,.71,0,1.06q0,45.4,0,90.81c0,.95.25,1.14,1.16,1.13,7.43-.05,14.85,0,22.28-.05.16.16.12.36.12.55V410a.83.83,0,0,1-.07.38c-7.52,0-15,0-22.55,0-.79,0-.93.24-.93,1q0,45.62,0,91.23c0,.82.22,1,1,1,2.71-.09,5.41.08,8.12-.09a2.22,2.22,0,0,0,.1-1.14v-81.5c0-1.4-.14-1.22,1.25-1.22,4,0,8.07,0,12.11,0,.71,0,1,.12,1,.94q0,47.67,0,95.34C182.58,516.11,182.68,516.41,182.46,516.66Z" transform="translate(-44.63 -257)"/><path class="cls-1" d="M135.4,291.12c0,.38,0,.77,0,1.16q0,47.3,0,94.61c0,1-.26,1.21-1.22,1.2-4.36,0-8.71,0-13.07,0-.27-.34-.13-.74-.13-1.11q0-40.77,0-81.52v-.87c0-.28-.13-.43-.4-.42-2.87,0-5.74-.13-8.6.09h0a1.94,1.94,0,0,0-.09,1q0,45.39,0,90.79a1.94,1.94,0,0,0,.09,1,2,2,0,0,0,1.05.09c7.1,0,14.2,0,21.3,0,.92,0,1.09.28,1.08,1.13,0,3.65,0,7.29,0,10.94,0,.84-.15,1.12-1.08,1.12-7.09-.05-14.19,0-21.29,0-.35,0-.71,0-1.06.07a1.6,1.6,0,0,0-.09.94q0,45.56,0,91.1a1.62,1.62,0,0,0,.09.95c3,.14,5.94.09,8.91,0a2.21,2.21,0,0,0,.1-1.14V421a6.77,6.77,0,0,0,0-.78c-.06-.55.18-.72.72-.71,1.35,0,2.71,0,4.06,0h8.72c.31,0,.64-.11.93.12,0,.39,0,.77,0,1.16q0,47.32,0,94.64c0,.9-.18,1.18-1.15,1.17q-17.72,0-35.43,0l-1.17,0c-.24-.32-.11-.68-.11-1q0-111.76,0-223.55c0-1.09,0-1.09,1.09-1.09h35.75C134.71,291,135.08,290.88,135.4,291.12Z" transform="translate(-44.63 -257)"/><path class="cls-1" d="M206.32,503.43c2.87.17,5.74,0,8.61.08.36,0,.55-.09.5-.49,0-.12,0-.25,0-.38v-83a6.21,6.21,0,0,1,1.72-.07h11.57a2.66,2.66,0,0,1,1.05.07v95.7c0,1.3,0,1.3-1.35,1.3H193.08l-1.06,0c-.24-.28-.12-.62-.12-.93q0-111.87,0-223.73c0-.65,0-1,.89-1q18.16,0,36.33,0a1.51,1.51,0,0,1,.67.07q0,47.91,0,95.81c0,.92-.14,1.24-1.18,1.22-4-.07-8.07,0-12.1,0-.88,0-1.1-.22-1.1-1.1q0-40.8,0-81.58c0-.39,0-.77-.05-1.16a.84.84,0,0,0-.56-.1h-7.46c-1,0-1.12.19-1.14,1.13v.59q0,45.06,0,90.12a2.21,2.21,0,0,0,.09,1.14,2,2,0,0,0,1.05.09c7.16,0,14.33,0,21.49,0,.69,0,.94.12.93.88,0,3.81,0,7.61,0,11.42,0,.76-.24.87-.92.87-7.17,0-14.33,0-21.49,0-.35,0-.7,0-1.06.07a1.6,1.6,0,0,0-.09.94q0,45.56,0,91.1A1.62,1.62,0,0,0,206.32,503.43Z" transform="translate(-44.63 -257)"/><path class="cls-2" d="M88.32,291.12c0,.41,0,.83,0,1.25v223c0,1.46.2,1.26-1.3,1.27l-13,0c-.25-.38-.12-.81-.12-1.22q0-105-.05-210c0-4.08-.16-8.18-.18-12.27v-.68c0-1.54.2-1.73,1.73-1.74,3.33,0,6.65,0,10,0A19.6,19.6,0,0,1,88.32,291.12Z" transform="translate(-44.63 -257)"/><path class="cls-1" d="M164.26,537.2c.12-.45.44-.56.88-.56,3.19,0,6.38,0,9.57,0,1.08,0,1.33.78.64,1.92-2.67.17-5.35,0-8,.08-.35,0-.71-.1-1,.1l-.06,1.12c-.21.71,0,1.44-.12,2.16.08.13-.33.67.23.37a9.07,9.07,0,0,1,2.82-.79,4,4,0,0,1,1.34,0,6.71,6.71,0,0,1,5.05,2.86,8.2,8.2,0,0,1,.82,2.23,10,10,0,0,1,0,2.12c-.93,4.52-5,5.64-8.71,4.81a5,5,0,0,1-3.95-3.34c-.12-.37,0-.75-.21-1.08a6.27,6.27,0,0,1,0-1.73c.81-.69,1.72-.42,1.91.57a4.64,4.64,0,0,0,6.93,3.37,3.85,3.85,0,0,0,2.08-4.11,4,4,0,0,0-2.91-3.48c-2.12-.6-4.43-.11-5.53,1.68a2.08,2.08,0,0,1-.49.44,1.65,1.65,0,0,1-1,0c-1-.31-.37-1.16-.58-1.74a23,23,0,0,0,.13-2.35l.07-2.49C164.35,538.65,164.11,537.92,164.26,537.2Z" transform="translate(-44.63 -257)"/><path class="cls-3" d="M135.4,291.12a2,2,0,0,0-1-.13q-17.88,0-35.75,0c-.91,0-1.1.27-1.1,1.13q0,111.76,0,223.52a2.05,2.05,0,0,0,.12,1c-.36-.26-.22-.65-.22-1q0-111.85,0-223.72c0-.83.2-1.09,1.07-1.09q18,0,35.94,0C134.75,290.9,135.14,290.75,135.4,291.12Z" transform="translate(-44.63 -257)"/><path class="cls-3" d="M229.77,291.06c-.32,0-.64-.06-1-.07q-17.92,0-35.84,0c-.92,0-1.1.27-1.1,1.13q0,111.7,0,223.42a2.21,2.21,0,0,0,.13,1.14c-.43-.36-.22-.85-.22-1.27q0-110.88,0-221.76c0-.65,0-1.29,0-1.94s.23-.88.85-.8h36C229,290.9,229.44,290.76,229.77,291.06Z" transform="translate(-44.63 -257)"/><path class="cls-1" d="M133.57,545.19c0,2.36,0,4.71,0,7.07,0,.42.1.9-.35,1.2a1.26,1.26,0,0,1-1.12.13c-.43-.14-.33-.64-.33-1,0-3.87,0-7.74,0-11.61,0-.27.15-.66-.12-.79s-.49.31-.74.48c-.63.44-.92,1.4-1.91,1.29-.28,0-.69.27-.83-.2a1.1,1.1,0,0,1,.21-1.24c.79-.72,1.52-1.49,2.27-2.25a4,4,0,0,0,.85-1,1.19,1.19,0,0,1,1.49-.55c.63.16.59.7.59,1.16C133.58,540.29,133.57,542.74,133.57,545.19Z" transform="translate(-44.63 -257)"/><path class="cls-3" d="M182.46,516.66a2.21,2.21,0,0,0,.12-1.14q0-47.37,0-94.75c0-.95-.19-1.25-1.19-1.23-4,.06-8.08,0-12.11,0-.85,0-1.07.21-1.07,1.07q0,31.54,0,63.1,0,9.35,0,18.68c0,.35.11.71-.1,1V420.78c0-1.32,0-1.32,1.29-1.32,4.07,0,8.14,0,12.2,0,.77,0,1.06.16,1.06,1q0,47.67,0,95.33C182.68,516.08,182.8,516.44,182.46,516.66Z" transform="translate(-44.63 -257)"/><path class="cls-3" d="M182.46,388.09a2.22,2.22,0,0,0,.12-1.14q0-47.38,0-94.76c0-1-.2-1.23-1.2-1.22-11.88,0-23.76,0-35.64,0-.35,0-.7.05-1.06.07.3-.28.68-.17,1-.17q17.91,0,35.83,0c.85,0,1.16.17,1.16,1.11q0,47.56,0,95.13C182.68,387.44,182.83,387.83,182.46,388.09Z" transform="translate(-44.63 -257)"/><path class="cls-3" d="M206.32,397.13c-.2-.29-.09-.63-.09-.94q0-45.46,0-90.94c0-1,.3-1.21,1.23-1.18,2.36.06,4.71,0,7.07,0,.29,0,.64-.18.88.15h-7.55c-1.41,0-1.51.1-1.51,1.47v91.41Z" transform="translate(-44.63 -257)"/><path class="cls-3" d="M135.4,419.69a2,2,0,0,0-1-.12c-4.1,0-8.2,0-12.3,0-.88,0-1,.25-1,1.07q0,40.89,0,81.77c0,.35.18.76-.16,1.07V420.82c0-1.36,0-1.36,1.35-1.36h12.1C134.68,419.47,135.11,419.3,135.4,419.69Z" transform="translate(-44.63 -257)"/><path class="cls-3" d="M112,503.43c-.2-.29-.09-.63-.09-.94q0-45.56,0-91.11c0-.32-.11-.65.09-.94Z" transform="translate(-44.63 -257)"/><path class="cls-3" d="M206.32,503.43c-.2-.29-.09-.63-.09-.94q0-45.56,0-91.11c0-.32-.11-.65.09-.94Z" transform="translate(-44.63 -257)"/><path class="cls-3" d="M112,304.25c.24-.32.59-.15.89-.15,2.38,0,4.78,0,7.16,0,.92,0,1,.29,1,1.09q0,40.85,0,81.68c0,.42,0,.84.07,1.25-.44-.35-.23-.84-.23-1.26q0-40.6,0-81.22c0-1.35,0-1.35-1.35-1.35Z" transform="translate(-44.63 -257)"/><path class="cls-3" d="M112,397.13c-.2-.29-.09-.63-.09-.94q0-45.49,0-91c0-.32-.1-.65.09-.94Z" transform="translate(-44.63 -257)"/><path class="cls-3" d="M168.15,304.26a2.07,2.07,0,0,1,.1,1.13q0,40.68,0,81.37a2.74,2.74,0,0,0,.12,1.33c-.41-.33-.22-.78-.22-1.18Q168.15,345.59,168.15,304.26Z" transform="translate(-44.63 -257)"/><path class="cls-3" d="M229.77,419.64c-2.82,0-5.65-.07-8.47-.07-2,0-3.92,0-5.87.07.23-.25.53-.17.81-.17q6.36,0,12.71,0C229.23,419.47,229.54,419.39,229.77,419.64Z" transform="translate(-44.63 -257)"/><path class="cls-3" d="M182.51,410.37c0-3.21.07-6.42.06-9.62a15.63,15.63,0,0,0-.11-3.55c.28.17.22.44.22.69q0,5.92,0,11.85A.76.76,0,0,1,182.51,410.37Z" transform="translate(-44.63 -257)"/><path class="cls-3" d="M159.1,304.25c.09-.25.31-.16.48-.16h8.07c.18,0,.39-.07.5.16Z" transform="translate(-44.63 -257)"/><path class="cls-3" d="M165.48,538.75c.24-.33.59-.16.88-.16,2.73,0,5.45,0,8.18,0-.29.29-.66.17-1,.17Z" transform="translate(-44.63 -257)"/><path class="cls-3" d="M163.45,537.2a8.66,8.66,0,0,1-.13,2.16A6.29,6.29,0,0,1,163.45,537.2Z" transform="translate(-44.63 -257)"/><path class="cls-3" d="M163.7,545.94h1A.73.73,0,0,1,163.7,545.94Z" transform="translate(-44.63 -257)"/><path class="cls-1" d="M162.2,547.66a4.45,4.45,0,0,0-2.69-3.37,4.52,4.52,0,0,0,1.9-2.45,5.64,5.64,0,0,0,0-1.74,4.25,4.25,0,0,0-2.67-3.12,10.56,10.56,0,0,0-2.6-.6,3.36,3.36,0,0,0-1.34,0l-.67.07c-2.89.41-4.28,1.34-4.62,3.85a4.3,4.3,0,0,0,0,1.34,4.09,4.09,0,0,0,1.62,2.61,4.1,4.1,0,0,0-2.38,3.21,8.85,8.85,0,0,0,0,2.12,4.71,4.71,0,0,0,1.63,2.91,8.29,8.29,0,0,0,5.79,1.34c2.42-.14,5.25-.93,6-4.25A7.71,7.71,0,0,0,162.2,547.66Zm-9.33-8.87a7.6,7.6,0,0,1,5.18,0,2.3,2.3,0,0,1,1.38,2.24,2,2,0,0,1-1.44,1.86,6.31,6.31,0,0,1-5.16,0,1.91,1.91,0,0,1-1.35-1.81A2.3,2.3,0,0,1,152.87,538.79Zm5.8,12.37a7.12,7.12,0,0,1-6.33.07,2.82,2.82,0,0,1-1.65-3.1,2.69,2.69,0,0,1,2.07-2.39,8.08,8.08,0,0,1,2.76-.38,7.8,7.8,0,0,1,2.76.41,2.64,2.64,0,0,1,1.92,2.41A2.78,2.78,0,0,1,158.67,551.16Z" transform="translate(-44.63 -257)"/><path class="cls-1" d="M147.8,541.85c-.21-.36,0-.78-.13-1.16-.87-3.75-4-4.83-7.12-4.4s-5,2.29-4.79,6.27c.11,2.18,2.18,4.84,4.69,5,.34.11.7,0,1,.12H142c.38-.2.8,0,1.19-.14a9.59,9.59,0,0,0,2.47-1c.43,3.3-.62,4.89-3,5.43a4.23,4.23,0,0,1-1.84,0c-1.81-.15-2.95-1.29-3.19-3.41-.08-.7-.36-1-1-1s-.94.46-1,1.08c.19.32,0,.68.14,1a5.06,5.06,0,0,0,4.9,4.31,8.76,8.76,0,0,0,2.11,0,5.53,5.53,0,0,0,4.9-4.3c.14-.38-.08-.8.14-1.17Zm-6,3.87a3.83,3.83,0,1,1,4.05-3.83A3.76,3.76,0,0,1,141.78,545.72Z" transform="translate(-44.63 -257)"/><polygon class="cls-1" points="0 0 0 293.19 76.63 293.19 76.63 282.13 11.07 282.13 11.07 11.01 203.54 11.01 203.54 282.13 137.64 282.13 137.64 293.19 214.59 293.19 214.59 0 0 0"/><line class="cls-4" x1="237.64" x2="237.64" y2="293.19"/><path class="cls-1" d="M307.67,384.19a3.07,3.07,0,0,1-2.34-.81,3,3,0,0,1-1-2.34,3.19,3.19,0,0,1,1-2.38,2.7,2.7,0,0,1,2.34-.76l1.86.19,2.05.19h.19c.44,0,.67-.29.67-.86V321a.76.76,0,0,0-.86-.86q-1.14.09-2.1.24a14.16,14.16,0,0,1-2,.14,3.08,3.08,0,0,1-2.19-.9,3,3,0,0,1-1-2.25,3.27,3.27,0,0,1,1.1-2.52A3,3,0,0,1,308,314c1.27.19,2.62.36,4.05.52a36.51,36.51,0,0,0,4.05.24l17.45.1q12.11.09,18.74,5.38t6.63,14.83A18.74,18.74,0,0,1,354.35,348q-4.53,5.1-12.83,6.73a.87.87,0,0,0-.57.42.61.61,0,0,0,.09.72l14.5,22a1.15,1.15,0,0,0,1.14.57c2.67-.13,5-.32,7.06-.57a2.7,2.7,0,0,1,2.34.76,3.19,3.19,0,0,1,1,2.38,3,3,0,0,1-1,2.34,3.07,3.07,0,0,1-2.34.81,13.23,13.23,0,0,0-1.67-.24c-.92-.09-2-.19-3.19-.28s-2.39-.15-3.53-.15a6.2,6.2,0,0,1-5.34-2.86L333.8,356a1.07,1.07,0,0,0-1.05-.57H319.59a.76.76,0,0,0-.86.86v21.36a.76.76,0,0,0,.86.86l5.82-.57a2.55,2.55,0,0,1,2.28.76,3.23,3.23,0,0,1,1,2.38,3.06,3.06,0,0,1-1,2.34,2.89,2.89,0,0,1-2.28.81c-1.85-.19-3.47-.33-4.87-.43s-2.73-.14-4-.14-2.61.05-4,.14S309.51,384,307.67,384.19Zm11.92-34.9h15q18.4,0,18.4-14.21,0-7.05-4.67-10.68t-13.73-3.62h-15a.76.76,0,0,0-.86.86v26.79A.76.76,0,0,0,319.59,349.29Z" transform="translate(-44.63 -257)"/><path class="cls-1" d="M384.91,384.1a14.61,14.61,0,0,1-10.16-3.58,11.75,11.75,0,0,1-3.95-9.11q0-7.05,4.72-10.92t12.06-3.86a36.49,36.49,0,0,1,13.73,3.05,1,1,0,0,0,.48.1c.38,0,.57-.22.57-.67v-4.77q0-6.57-3.48-10.2a11.72,11.72,0,0,0-8.82-3.62,18.6,18.6,0,0,0-7.44,1.71.85.85,0,0,0-.38,1.15,4.71,4.71,0,0,1,.38,1.9,4.8,4.8,0,0,1-4.86,4.77,4.51,4.51,0,0,1-3.63-1.57,5.49,5.49,0,0,1-1.33-3.67,6.08,6.08,0,0,1,1.53-4,16.61,16.61,0,0,1,6.24-4.43,20.68,20.68,0,0,1,8.06-1.57q9.44,0,14.54,5.1t5.1,14.44V377.9a.76.76,0,0,0,.86.86,12.45,12.45,0,0,0,2.39-.43,7.54,7.54,0,0,1,2.19-.34,2.72,2.72,0,0,1,2.05.86,3.06,3.06,0,0,1,.81,2.19,3,3,0,0,1-3.43,3.06c-.83-.2-1.72-.35-2.67-.48s-1.94-.22-3-.29a4.92,4.92,0,0,1-3.67-1.52,5,5,0,0,1-1.48-3.63.08.08,0,0,0-.09-.09,2.15,2.15,0,0,0-1,.47,25.64,25.64,0,0,1-7.2,4.11A26.58,26.58,0,0,1,384.91,384.1Zm0-5.73a25.93,25.93,0,0,0,9.49-1.86,23.66,23.66,0,0,0,7.58-5.57,1.67,1.67,0,0,0,.38-1.05v-3.44a1,1,0,0,0-.57-.95,36.75,36.75,0,0,0-5.39-2.29,26.22,26.22,0,0,0-8.44-1.14c-3.56,0-6.37.82-8.44,2.48a8.31,8.31,0,0,0-3.1,6.86,6.19,6.19,0,0,0,2.39,5A9.32,9.32,0,0,0,384.91,378.37Z" transform="translate(-44.63 -257)"/><path class="cls-1" d="M427.82,384.19a2.55,2.55,0,0,1-1.95-.71,2.62,2.62,0,0,1-.91-2.05,2.86,2.86,0,0,1,.86-2.1,2.18,2.18,0,0,1,2-.67l4.2.29h.19c.44,0,.67-.26.67-.77V341c0-.5-.23-.76-.67-.76-.83,0-1.66,0-2.48.1s-1.62.16-2.39.28a2.9,2.9,0,0,1-2.19-.71,2.67,2.67,0,0,1-.95-2.15,2.79,2.79,0,0,1,.95-2.19,2.56,2.56,0,0,1,2.19-.67,49.54,49.54,0,0,0,5,.57h3.53a2.79,2.79,0,0,1,3,3v5c0,.38.11.62.33.71s.46,0,.72-.24q9.06-9,17.16-9.05a12.27,12.27,0,0,1,5.53,1.23q4,2.1,5.63,8.11c.19.83.57.92,1.14.29q9.15-9.63,17.74-9.63a14.24,14.24,0,0,1,5.91,1.33,9.46,9.46,0,0,1,4.43,4.29,21.14,21.14,0,0,1,2.05,6.2,35.59,35.59,0,0,1,.58,6.1v25.46c0,.64.31.89.95.77l4.1-.29a2.18,2.18,0,0,1,2,.67,2.82,2.82,0,0,1,.86,2.1,2.65,2.65,0,0,1-.9,2.05,2.58,2.58,0,0,1-2,.71c-2-.19-3.54-.33-4.72-.43s-2.27-.14-3.29-.14-2.29.05-3.43.14-2.67.24-4.58.43a2.55,2.55,0,0,1-2-.71,2.62,2.62,0,0,1-.91-2.05,2.86,2.86,0,0,1,.86-2.1,2.18,2.18,0,0,1,2-.67l4.1.29h.19c.45,0,.67-.26.67-.77V352.72a18.58,18.58,0,0,0-1.33-7.48c-.9-2-2.07-3.23-3.53-3.67a10.57,10.57,0,0,0-3-.48q-7.24,0-16.69,10a1.45,1.45,0,0,0-.47,1v26c0,.58.28.83.85.77l4.2-.29a2.36,2.36,0,0,1,2.1.62,2.83,2.83,0,0,1,.86,2.15,2.66,2.66,0,0,1-.91,2.05,2.7,2.7,0,0,1-2.05.71c-2-.19-3.54-.33-4.72-.43s-2.24-.14-3.19-.14c-1.21,0-2.37.05-3.49.14l-4.53.43a2.7,2.7,0,0,1-2.05-.71,2.65,2.65,0,0,1-.9-2.05,2.8,2.8,0,0,1,.86-2.15,2.35,2.35,0,0,1,2.09-.62l4.2.29h.19c.45,0,.67-.26.67-.77V352.72a22.18,22.18,0,0,0-1.1-7.67,5.35,5.35,0,0,0-3.29-3.58,8.21,8.21,0,0,0-2.57-.38q-7.35,0-17,10.11a1.47,1.47,0,0,0-.47,1.05v25.93c0,.58.28.83.86.77l4.19-.29a2.18,2.18,0,0,1,2,.67,2.82,2.82,0,0,1,.86,2.1,2.65,2.65,0,0,1-.9,2.05,2.58,2.58,0,0,1-2,.71c-2-.19-3.54-.33-4.72-.43s-2.27-.14-3.29-.14-2.29.05-3.43.14S429.73,384,427.82,384.19Z" transform="translate(-44.63 -257)"/><path class="cls-1" d="M530.43,384.1a14.59,14.59,0,0,1-10.16-3.58,11.73,11.73,0,0,1-4-9.11q0-7.05,4.72-10.92t12.07-3.86a36.53,36.53,0,0,1,13.73,3.05.94.94,0,0,0,.47.1c.39,0,.58-.22.58-.67v-4.77q0-6.57-3.48-10.2a11.75,11.75,0,0,0-8.82-3.62,18.53,18.53,0,0,0-7.44,1.71.84.84,0,0,0-.38,1.15,4.71,4.71,0,0,1,.38,1.9,4.81,4.81,0,0,1-4.87,4.77,4.5,4.5,0,0,1-3.62-1.57,5.49,5.49,0,0,1-1.33-3.67,6.07,6.07,0,0,1,1.52-4,16.64,16.64,0,0,1,6.25-4.43,20.63,20.63,0,0,1,8-1.57q9.45,0,14.55,5.1t5.1,14.44V377.9a.76.76,0,0,0,.86.86,12.35,12.35,0,0,0,2.38-.43,7.54,7.54,0,0,1,2.19-.34,2.7,2.7,0,0,1,2,.86,3.06,3.06,0,0,1,.81,2.19,3,3,0,0,1-3.43,3.06,26.18,26.18,0,0,0-2.67-.48c-1-.13-1.94-.22-3-.29a4.94,4.94,0,0,1-3.68-1.52,5.06,5.06,0,0,1-1.47-3.63c0-.06,0-.09-.1-.09a2.13,2.13,0,0,0-.95.47,25.92,25.92,0,0,1-7.2,4.11A26.62,26.62,0,0,1,530.43,384.1Zm0-5.73a25.83,25.83,0,0,0,9.48-1.86,23.58,23.58,0,0,0,7.59-5.57,1.67,1.67,0,0,0,.38-1.05v-3.44a1,1,0,0,0-.58-.95,36.11,36.11,0,0,0-5.38-2.29,26.26,26.26,0,0,0-8.44-1.14c-3.56,0-6.38.82-8.44,2.48a8.29,8.29,0,0,0-3.1,6.86,6.18,6.18,0,0,0,2.38,5A9.35,9.35,0,0,0,530.43,378.37Z" transform="translate(-44.63 -257)"/><path class="cls-1" d="M597.46,384.19a3.07,3.07,0,0,1-2.34-.81,3,3,0,0,1-1-2.34,3.19,3.19,0,0,1,1-2.38,2.7,2.7,0,0,1,2.34-.76l2.62.19c.92.06,1.86.16,2.82.28a.75.75,0,0,0,.85-.85V320.59a.75.75,0,0,0-.85-.86l-2.82.19c-.92.06-1.79.16-2.62.29a3.12,3.12,0,0,1-3.34-3.15,3.21,3.21,0,0,1,1-2.39,2.73,2.73,0,0,1,2.34-.76c1.84.19,3.54.34,5.1.43s3.07.14,4.53.14,2.82,0,4.25-.14,3-.24,4.81-.43a2.73,2.73,0,0,1,2.34.76,3.17,3.17,0,0,1,1,2.39,3,3,0,0,1-1,2.33,3,3,0,0,1-2.34.82c-.82-.13-1.68-.23-2.57-.29l-2.67-.19a.75.75,0,0,0-.86.86v56.93a.67.67,0,0,0,.76.76,27.46,27.46,0,0,0,2.77-.14c.89-.1,1.75-.18,2.57-.24a2.7,2.7,0,0,1,2.34.76,3.15,3.15,0,0,1,1,2.38,3,3,0,0,1-1,2.34,3.07,3.07,0,0,1-2.34.81c-1.84-.19-3.54-.33-5.1-.43s-3.07-.14-4.53-.14A83.47,83.47,0,0,0,597.46,384.19Z" transform="translate(-44.63 -257)"/><path class="cls-1" d="M633.51,384.1a3.17,3.17,0,0,1-2.63-.82,3.24,3.24,0,0,1-1.09-2.52,3.11,3.11,0,0,1,1.09-2.53,3.31,3.31,0,0,1,2.63-.71l1.43.19,1.52.19h.19c.45,0,.67-.26.67-.77V320.87c0-.51-.22-.76-.67-.76a7.73,7.73,0,0,0-1.9.24,7.15,7.15,0,0,1-1.72.24,3.16,3.16,0,0,1-2.24-1,3,3,0,0,1-1-2.29,3.22,3.22,0,0,1,3.72-3.33c1.27.13,2.6.28,4,.47a29.2,29.2,0,0,0,3.91.29h33.19a5.38,5.38,0,0,1,5.34,5.15l.57,8a2.81,2.81,0,0,1-.86,2.48,3.4,3.4,0,0,1-2.48,1,3.28,3.28,0,0,1-2.34-1,3,3,0,0,1-1-2.28,28.59,28.59,0,0,1,.19-3.15c.13-1.08.23-2.13.29-3.15v-.19c0-.51-.29-.76-.86-.76h-29a.75.75,0,0,0-.85.86v21.93a.76.76,0,0,0,.85.86H669a2.94,2.94,0,0,1,3,3.05,2.84,2.84,0,0,1-.86,2.1,3,3,0,0,1-2.19.85H644.47a.76.76,0,0,0-.85.86v24.8a.75.75,0,0,0,.85.85h29c.64,0,.92-.31.86-.95-.06-1.08-.16-2.19-.29-3.34a29.18,29.18,0,0,1-.19-2.95,3.07,3.07,0,0,1,1-2.29,3.28,3.28,0,0,1,2.34-1,3.44,3.44,0,0,1,2.48,1.05,2.81,2.81,0,0,1,.86,2.48l-.57,8a5.27,5.27,0,0,1-1.67,3.63,5.15,5.15,0,0,1-3.67,1.52H640.85a25.15,25.15,0,0,0-3.72.29C635.86,383.81,634.65,384,633.51,384.1Z" transform="translate(-44.63 -257)"/><path class="cls-1" d="M696.06,384.1a3.15,3.15,0,0,1-2.62-.82,3.25,3.25,0,0,1-1.1-2.52,3.12,3.12,0,0,1,1.1-2.53,3.29,3.29,0,0,1,2.62-.71l1.43.19,1.53.19h.19c.44,0,.67-.26.67-.77V320.87c0-.51-.23-.76-.67-.76a7.81,7.81,0,0,0-1.91.24,7.15,7.15,0,0,1-1.72.24,3.18,3.18,0,0,1-2.24-1,3.05,3.05,0,0,1-1-2.29,3.23,3.23,0,0,1,3.72-3.33c1.27.13,2.61.28,4,.47a29.08,29.08,0,0,0,3.91.29h33.18a5.38,5.38,0,0,1,5.34,5.15l.57,8a2.81,2.81,0,0,1-.86,2.48,3.38,3.38,0,0,1-2.48,1,3.26,3.26,0,0,1-2.33-1,3,3,0,0,1-1-2.28,26.33,26.33,0,0,1,.19-3.15c.12-1.08.22-2.13.28-3.15v-.19c0-.51-.28-.76-.85-.76H707a.76.76,0,0,0-.86.86v21.93a.76.76,0,0,0,.86.86h24.5a2.93,2.93,0,0,1,3.05,3.05,2.87,2.87,0,0,1-.85,2.1,3,3,0,0,1-2.2.85H707a.76.76,0,0,0-.86.86v24.8a.76.76,0,0,0,.86.85h29c.63,0,.92-.31.85-.95-.06-1.08-.16-2.19-.28-3.34a26.52,26.52,0,0,1-.19-2.95,3,3,0,0,1,1-2.29,3.26,3.26,0,0,1,2.33-1,3.42,3.42,0,0,1,2.48,1.05,2.81,2.81,0,0,1,.86,2.48l-.57,8a5.23,5.23,0,0,1-1.67,3.63,5.13,5.13,0,0,1-3.67,1.52H703.4a25.36,25.36,0,0,0-3.72.29C698.41,383.81,697.21,384,696.06,384.1Z" transform="translate(-44.63 -257)"/><path class="cls-1" d="M758.62,384.1a3.17,3.17,0,0,1-2.63-.82,3.24,3.24,0,0,1-1.09-2.52,3.11,3.11,0,0,1,1.09-2.53,3.31,3.31,0,0,1,2.63-.71l1.43.19,1.52.19h.19c.45,0,.67-.26.67-.77V320.87c0-.51-.22-.76-.67-.76a7.73,7.73,0,0,0-1.9.24,7.15,7.15,0,0,1-1.72.24,3.16,3.16,0,0,1-2.24-1,3,3,0,0,1-1-2.29,3.22,3.22,0,0,1,3.72-3.33c1.27.13,2.6.28,4,.47a29.2,29.2,0,0,0,3.91.29h33.18a5.36,5.36,0,0,1,5.34,5.15l.58,8a2.84,2.84,0,0,1-.86,2.48,3.4,3.4,0,0,1-2.48,1,3.28,3.28,0,0,1-2.34-1,3,3,0,0,1-1-2.28,26.33,26.33,0,0,1,.19-3.15c.13-1.08.22-2.13.29-3.15v-.19c0-.51-.29-.76-.86-.76h-29a.76.76,0,0,0-.86.86v21.93a.76.76,0,0,0,.86.86h24.51a2.93,2.93,0,0,1,2.19.86,3,3,0,0,1,.86,2.19,2.88,2.88,0,0,1-.86,2.1,3,3,0,0,1-2.19.85H769.58a.76.76,0,0,0-.86.86v24.8a.76.76,0,0,0,.86.85h29c.64,0,.92-.31.86-.95-.07-1.08-.16-2.19-.29-3.34a26.52,26.52,0,0,1-.19-2.95,3.07,3.07,0,0,1,1-2.29,3.28,3.28,0,0,1,2.34-1,3.44,3.44,0,0,1,2.48,1.05,2.84,2.84,0,0,1,.86,2.48l-.58,8a5.26,5.26,0,0,1-1.66,3.63,5.15,5.15,0,0,1-3.68,1.52H766a25.15,25.15,0,0,0-3.72.29C761,383.81,759.76,384,758.62,384.1Z" transform="translate(-44.63 -257)"/><path class="cls-1" d="M334.75,498.62q-10.87,0-17.07-7t-6.2-19V435c0-.51-.22-.77-.66-.77-.83,0-1.64,0-2.44.1s-1.54.16-2.24.28a3.1,3.1,0,0,1-3.33-3.14,3.16,3.16,0,0,1,1-2.39,2.68,2.68,0,0,1,2.33-.76c1.85.19,3.47.33,4.87.43s2.73.14,4,.14,2.61,0,4-.14,3-.24,4.86-.43a2.5,2.5,0,0,1,2.29.81,3.31,3.31,0,0,1,.95,2.34,3.15,3.15,0,0,1-.95,2.29,2.82,2.82,0,0,1-2.29.85c-.83-.12-1.7-.22-2.62-.28l-2.82-.19a.75.75,0,0,0-.85.86v37.76c0,1,.08,2.24.24,3.86a23.64,23.64,0,0,0,1.14,5.2,18.87,18.87,0,0,0,2.76,5.29,13.72,13.72,0,0,0,5,4.1,17.88,17.88,0,0,0,8,1.57,17.7,17.7,0,0,0,8.11-1.62,14.08,14.08,0,0,0,5-4.15,17.63,17.63,0,0,0,2.72-5.29,26.41,26.41,0,0,0,1.1-5.19c.16-1.63.24-2.88.24-3.77V435a.76.76,0,0,0-.86-.86l-2.82.19c-.92.06-1.79.16-2.62.28a2.82,2.82,0,0,1-2.24-.85,3,3,0,0,1-1-2.29,3.2,3.2,0,0,1,1-2.34,2.49,2.49,0,0,1,2.24-.81c1.91.19,3.56.33,5,.43s2.7.14,3.91.14,2.61,0,4-.14,3-.24,4.86-.43a2.67,2.67,0,0,1,2.33.76,3.16,3.16,0,0,1,1,2.39,3,3,0,0,1-1,2.33,3,3,0,0,1-2.33.81,14.61,14.61,0,0,0-2.15-.23c-.79,0-1.57-.08-2.33-.15h-.19c-.45,0-.67.26-.67.77v37.66q0,12.12-6.25,19T334.75,498.62Z" transform="translate(-44.63 -257)"/><path class="cls-1" d="M378.14,498.52a2.61,2.61,0,0,1-2.86-2.67,2.81,2.81,0,0,1,.86-2.09,2.16,2.16,0,0,1,2-.67l4.19.29h.19c.45,0,.67-.26.67-.77V455.23c0-.63-.28-.89-.86-.76l-4.29.28a2.75,2.75,0,0,1-3-2.76,2.78,2.78,0,0,1,.9-2.1,2.22,2.22,0,0,1,2-.67l2.95.24q1.62.15,3.15.24a5.29,5.29,0,0,1,3.67,1.62A5,5,0,0,1,389.2,455v3.62c0,.38.11.6.33.67a.74.74,0,0,0,.72-.29q10.29-9.72,19-9.73,12.19,0,12.2,16.41v27c0,.64.32.89.95.77l4-.29a2.16,2.16,0,0,1,2,.67,2.85,2.85,0,0,1,.86,2.09,2.57,2.57,0,0,1-.86,2,2.54,2.54,0,0,1-2,.66c-2-.19-3.62-.31-4.77-.38s-2.22-.09-3.24-.09-2.29.05-3.43.14-2.67.21-4.58.33a2.61,2.61,0,0,1-2.86-2.67,2.81,2.81,0,0,1,.86-2.09,2.16,2.16,0,0,1,2-.67l4.1.29h.19c.44,0,.67-.26.67-.77V465.53q0-5.05-1.72-7.44c-1.14-1.59-3-2.38-5.53-2.38q-8.29,0-18.4,9.25a1.56,1.56,0,0,0-.48,1.14v26.51c0,.57.29.83.86.77l4.1-.29a2.16,2.16,0,0,1,2,.67,2.85,2.85,0,0,1,.86,2.09,2.57,2.57,0,0,1-.86,2,2.54,2.54,0,0,1-2,.66c-2-.19-3.63-.31-4.77-.38s-2.23-.09-3.24-.09-2.29.05-3.43.14S380.05,498.4,378.14,498.52Z" transform="translate(-44.63 -257)"/><path class="cls-1" d="M440.69,498.62a3,3,0,0,1-2.33-.81,3,3,0,0,1-1-2.34,3.15,3.15,0,0,1,1-2.38,2.64,2.64,0,0,1,2.33-.76l2.15.19c.73.06,1.48.16,2.24.28s.95-.28.95-.86V456a.75.75,0,0,0-.86-.86c-.76.06-1.52.11-2.28.14a15.27,15.27,0,0,0-2.2.24,3.18,3.18,0,0,1-2.43-5.39,3,3,0,0,1,2.15-.91l-.29-.09h0c1.21.13,2.56.25,4.05.38s2.43.19,2.82.19a5.06,5.06,0,0,1,5.15,5.15v37.09c0,.58.31.86.95.86s1.53-.22,2.29-.28l2.1-.19a2.52,2.52,0,0,1,2.28.76,3.23,3.23,0,0,1,1,2.38,3.06,3.06,0,0,1-1,2.34,2.89,2.89,0,0,1-2.28.81c-1.28-.13-2.66-.25-4.15-.38s-2.91-.19-4.25-.19-2.75.06-4.24.19S442,498.49,440.69,498.62Zm8.39-58.84a5.15,5.15,0,0,1-3.62-8.82,5.16,5.16,0,0,1,7.3,7.3A4.9,4.9,0,0,1,449.08,439.78Z" transform="translate(-44.63 -257)"/><path class="cls-1" d="M493.81,498.52a25.93,25.93,0,0,1-10.68-2.09,23.46,23.46,0,0,1-7.92-5.68,25.1,25.1,0,0,1-4.91-7.91,24.71,24.71,0,0,1-1.67-8.92,25.24,25.24,0,0,1,3.15-12.63,23.42,23.42,0,0,1,20.79-12.07q11,0,17,7.44,3.24,3.82,3.24,7.06a5.62,5.62,0,0,1-.66,2.67,4.8,4.8,0,0,1-4.3,2.48,4.54,4.54,0,0,1-3.48-1.48,5,5,0,0,1-1.38-3.58,3.29,3.29,0,0,1,.38-1.43,13.07,13.07,0,0,1,.77-1.33,1,1,0,0,0,.19-1.15,11.16,11.16,0,0,0-4.63-3.95,17.07,17.07,0,0,0-7.1-1.29,17.48,17.48,0,0,0-9.3,2.48,17.24,17.24,0,0,0-6.34,6.82,21,21,0,0,0-2.29,10,18.82,18.82,0,0,0,2.48,9.63,18.18,18.18,0,0,0,6.77,6.77,18.82,18.82,0,0,0,9.63,2.48q8.1,0,14.3-6.67a2.77,2.77,0,0,1,2-.86,2.46,2.46,0,0,1,1.81.76,3.6,3.6,0,0,1,1,2.48,2.84,2.84,0,0,1-.76,2.1,24.64,24.64,0,0,1-18,7.91Z" transform="translate(-44.63 -257)"/><path class="cls-1" d="M535.67,498.52A14.6,14.6,0,0,1,525.51,495a11.74,11.74,0,0,1-4-9.11q0-7.05,4.73-10.92t12.06-3.86a36.53,36.53,0,0,1,13.73,3.05,1,1,0,0,0,.48.1c.38,0,.57-.22.57-.67v-4.77q0-6.57-3.48-10.2a11.69,11.69,0,0,0-8.82-3.62,18.57,18.57,0,0,0-7.44,1.71.84.84,0,0,0-.38,1.15,4.8,4.8,0,0,1-4.48,6.67,4.51,4.51,0,0,1-3.63-1.57,5.49,5.49,0,0,1-1.33-3.67,6.13,6.13,0,0,1,1.52-4,16.61,16.61,0,0,1,6.25-4.43,20.69,20.69,0,0,1,8.06-1.58q9.43,0,14.54,5.11t5.1,14.44v23.56a.76.76,0,0,0,.86.85,11,11,0,0,0,2.38-.43,8,8,0,0,1,2.2-.33,2.72,2.72,0,0,1,2,.86,3.06,3.06,0,0,1,.81,2.19,2.94,2.94,0,0,1-1.05,2.34,2.89,2.89,0,0,1-2.39.71,26.27,26.27,0,0,0-2.67-.47c-1-.13-1.94-.23-3-.29a4.9,4.9,0,0,1-3.67-1.52,5,5,0,0,1-1.48-3.63c0-.06,0-.09-.1-.09a2.13,2.13,0,0,0-.95.47,25.89,25.89,0,0,1-7.2,4.1A26.34,26.34,0,0,1,535.67,498.52Zm0-5.72a25.93,25.93,0,0,0,9.49-1.86,23.66,23.66,0,0,0,7.58-5.57,1.67,1.67,0,0,0,.38-1.05v-3.44a1,1,0,0,0-.57-.95,36.75,36.75,0,0,0-5.39-2.29,26.22,26.22,0,0,0-8.44-1.14c-3.56,0-6.37.82-8.44,2.48a8.29,8.29,0,0,0-3.1,6.86,6.19,6.19,0,0,0,2.39,5A9.3,9.3,0,0,0,535.67,492.8Z" transform="translate(-44.63 -257)"/><path class="cls-1" d="M594.41,498.52a19.13,19.13,0,0,1-11.25-3.33,14,14,0,0,1-5.91-12V455.23c0-.63-.29-.89-.86-.76l-4.48.28a2.6,2.6,0,0,1-2.1-.71,2.87,2.87,0,0,1,0-4.1,2.23,2.23,0,0,1,2-.62c1.52.13,2.72.21,3.58.24s1.76.08,2.71.14a5.06,5.06,0,0,1,5.15,5.15v28.32a8.59,8.59,0,0,0,1.43,5.25,8.41,8.41,0,0,0,3.44,2.76,14.58,14.58,0,0,0,3.81,1.1,22.77,22.77,0,0,0,2.48.24,15.24,15.24,0,0,0,8.87-3,27.45,27.45,0,0,0,7.53-8.25,2.38,2.38,0,0,0,.29-1v-25c0-.63-.29-.89-.86-.76l-4.48.28a2.6,2.6,0,0,1-2.1-.71,2.87,2.87,0,0,1,0-4.1,2.23,2.23,0,0,1,2-.62c1.53.13,2.72.21,3.58.24s1.76.08,2.72.14a5,5,0,0,1,5.14,5.15v37.48c0,.57.32.85,1,.85s1.4-.15,2.1-.28,1.36-.22,2-.29a2.63,2.63,0,0,1,2.29.72,3,3,0,0,1,.95,2.24,2.82,2.82,0,0,1-.95,2.19,3,3,0,0,1-2.29.76c-.89-.12-1.85-.27-2.86-.42s-2-.28-3-.34a5.43,5.43,0,0,1-3.63-1.57,4.83,4.83,0,0,1-1.52-3.58v-2.95c0-.39-.11-.62-.34-.72s-.46,0-.71.33Q603.27,498.53,594.41,498.52Z" transform="translate(-44.63 -257)"/><path class="cls-1" d="M658.49,498.52a25.93,25.93,0,0,1-10.68-2.09,23.46,23.46,0,0,1-7.92-5.68,25.1,25.1,0,0,1-4.91-7.91,24.71,24.71,0,0,1-1.67-8.92,25.24,25.24,0,0,1,3.15-12.63,23.42,23.42,0,0,1,20.79-12.07q11,0,17,7.44c2.16,2.55,3.25,4.9,3.25,7.06a5.63,5.63,0,0,1-.67,2.67,4.79,4.79,0,0,1-4.29,2.48,4.54,4.54,0,0,1-3.48-1.48,5,5,0,0,1-1.39-3.58,3.18,3.18,0,0,1,.39-1.43,11.45,11.45,0,0,1,.76-1.33,1,1,0,0,0,.19-1.15,11.16,11.16,0,0,0-4.63-3.95,17,17,0,0,0-7.1-1.29,17.09,17.09,0,0,0-15.64,9.3,21,21,0,0,0-2.29,10,18.92,18.92,0,0,0,2.48,9.63,18.18,18.18,0,0,0,6.77,6.77,18.82,18.82,0,0,0,9.63,2.48q8.12,0,14.31-6.67a2.75,2.75,0,0,1,2-.86,2.46,2.46,0,0,1,1.81.76,3.55,3.55,0,0,1,.95,2.48,2.84,2.84,0,0,1-.76,2.1,24.64,24.64,0,0,1-18,7.91Z" transform="translate(-44.63 -257)"/><path class="cls-1" d="M700.35,498.52A14.56,14.56,0,0,1,690.2,495a11.74,11.74,0,0,1-4-9.11q0-7.05,4.72-10.92T703,471.06a36.49,36.49,0,0,1,13.73,3.05,1,1,0,0,0,.48.1c.38,0,.57-.22.57-.67v-4.77q0-6.57-3.48-10.2A11.69,11.69,0,0,0,705.5,455a18.6,18.6,0,0,0-7.44,1.71.85.85,0,0,0-.38,1.15,4.8,4.8,0,0,1-4.48,6.67,4.47,4.47,0,0,1-3.62-1.57,5.45,5.45,0,0,1-1.34-3.67,6.08,6.08,0,0,1,1.53-4A16.5,16.5,0,0,1,696,450.8a20.69,20.69,0,0,1,8.06-1.58q9.43,0,14.54,5.11t5.1,14.44v23.56a.76.76,0,0,0,.86.85,11.08,11.08,0,0,0,2.39-.43,7.87,7.87,0,0,1,2.19-.33,2.72,2.72,0,0,1,2.05.86,3.06,3.06,0,0,1,.81,2.19,2.94,2.94,0,0,1-1,2.34,2.87,2.87,0,0,1-2.38.71c-.83-.19-1.72-.35-2.67-.47s-1.94-.23-3-.29a4.92,4.92,0,0,1-3.67-1.52,5,5,0,0,1-1.48-3.63.08.08,0,0,0-.09-.09,2.2,2.2,0,0,0-1,.47,25.61,25.61,0,0,1-7.2,4.1A26.34,26.34,0,0,1,700.35,498.52Zm0-5.72a25.93,25.93,0,0,0,9.49-1.86,23.66,23.66,0,0,0,7.58-5.57,1.67,1.67,0,0,0,.38-1.05v-3.44a1,1,0,0,0-.57-.95,36.75,36.75,0,0,0-5.39-2.29,26.22,26.22,0,0,0-8.44-1.14c-3.56,0-6.37.82-8.44,2.48a8.31,8.31,0,0,0-3.1,6.86,6.19,6.19,0,0,0,2.39,5A9.32,9.32,0,0,0,700.35,492.8Z" transform="translate(-44.63 -257)"/></svg>