<svg id="Capa_5" data-name="Capa 5" xmlns="http://www.w3.org/2000/svg" viewBox="0 0 797.16 296.95"><defs><style>.cls-1,.cls-5,.cls-7{fill:#fff;}.cls-2{fill:#fdfdff;}.cls-3{fill:#fdfdfd;}.cls-4{fill:none;stroke:#fff;stroke-miterlimit:10;stroke-width:3px;}.cls-5{font-size:95.36px;}.cls-5,.cls-7{font-family:KiwiMaru-Medium, Kiwi Maru;font-weight:500;}.cls-6{letter-spacing:-0.02em;}.cls-7{font-size:95px;letter-spacing:0.11em;}.cls-8{letter-spacing:0.06em;}</style></defs><path class="cls-1" d="M182.46,516.66l-10.75,0q-13,0-26.05,0c-.74,0-1.09-.14-1-.93a5.06,5.06,0,0,0,0-.78q0-111.93,0-223.88a2.41,2.41,0,0,1,1-.07H181.5c1.08,0,1.08,0,1.08,1.1v95c0,.34.12.71-.12,1H168.38c-.25-.35-.12-.75-.12-1.13q0-40.79,0-81.56a2.21,2.21,0,0,0-.1-1.14h0a8.39,8.39,0,0,0-2.4-.09c-2.22,0-4.44-.14-6.65.09,0,.36,0,.71,0,1.06q0,45.4,0,90.81c0,.95.25,1.14,1.16,1.13,7.43-.05,14.85,0,22.28-.05.16.16.12.36.12.55V410a.83.83,0,0,1-.07.38c-7.52,0-15,0-22.55,0-.79,0-.93.24-.93,1q0,45.62,0,91.23c0,.82.22,1,1,1,2.71-.09,5.41.08,8.12-.09a2.22,2.22,0,0,0,.1-1.14v-81.5c0-1.4-.14-1.22,1.25-1.22,4,0,8.07,0,12.11,0,.71,0,1,.12,1,.94q0,47.67,0,95.34C182.58,516.11,182.68,516.41,182.46,516.66Z" transform="translate(-44.63 -257)"/><path class="cls-1" d="M135.4,291.12c0,.38,0,.77,0,1.16q0,47.3,0,94.61c0,1-.26,1.21-1.22,1.2-4.36,0-8.71,0-13.07,0-.27-.34-.13-.74-.13-1.11q0-40.77,0-81.52v-.87c0-.28-.13-.43-.4-.42-2.87,0-5.74-.13-8.6.09h0a1.94,1.94,0,0,0-.09,1q0,45.39,0,90.79a1.94,1.94,0,0,0,.09,1,2,2,0,0,0,1.05.09c7.1,0,14.2,0,21.3,0,.92,0,1.09.28,1.08,1.13,0,3.65,0,7.29,0,10.94,0,.84-.15,1.12-1.08,1.12-7.09-.05-14.19,0-21.29,0-.35,0-.71,0-1.06.07a1.6,1.6,0,0,0-.09.94q0,45.56,0,91.1a1.62,1.62,0,0,0,.09.95c3,.14,5.94.09,8.91,0a2.21,2.21,0,0,0,.1-1.14V421a6.77,6.77,0,0,0,0-.78c-.06-.55.18-.72.72-.71,1.35,0,2.71,0,4.06,0h8.72c.31,0,.64-.11.93.12,0,.39,0,.77,0,1.16q0,47.32,0,94.64c0,.9-.18,1.18-1.15,1.17q-17.72,0-35.43,0l-1.17,0c-.24-.32-.11-.68-.11-1q0-111.76,0-223.55c0-1.09,0-1.09,1.09-1.09h35.75C134.71,291,135.08,290.88,135.4,291.12Z" transform="translate(-44.63 -257)"/><path class="cls-1" d="M206.32,503.43c2.87.17,5.74,0,8.61.08.36,0,.55-.09.5-.49,0-.12,0-.25,0-.38v-83a6.21,6.21,0,0,1,1.72-.07h11.57a2.66,2.66,0,0,1,1.05.07v95.7c0,1.3,0,1.3-1.35,1.3H193.08l-1.06,0c-.24-.28-.12-.62-.12-.93q0-111.87,0-223.73c0-.65,0-1,.89-1q18.16,0,36.33,0a1.51,1.51,0,0,1,.67.07q0,47.91,0,95.81c0,.92-.14,1.24-1.18,1.22-4-.07-8.07,0-12.1,0-.88,0-1.1-.22-1.1-1.1q0-40.8,0-81.58c0-.39,0-.77-.05-1.16a.84.84,0,0,0-.56-.1h-7.46c-1,0-1.12.19-1.14,1.13v.59q0,45.06,0,90.12a2.21,2.21,0,0,0,.09,1.14,2,2,0,0,0,1.05.09c7.16,0,14.33,0,21.49,0,.69,0,.94.12.93.88,0,3.81,0,7.61,0,11.42,0,.76-.24.87-.92.87-7.17,0-14.33,0-21.49,0-.35,0-.7,0-1.06.07a1.6,1.6,0,0,0-.09.94q0,45.56,0,91.1A1.62,1.62,0,0,0,206.32,503.43Z" transform="translate(-44.63 -257)"/><path class="cls-2" d="M88.32,291.12c0,.41,0,.83,0,1.25v223c0,1.46.2,1.26-1.3,1.27l-13,0c-.25-.38-.12-.81-.12-1.22q0-105-.05-210c0-4.08-.16-8.18-.18-12.27v-.68c0-1.54.2-1.73,1.73-1.74,3.33,0,6.65,0,10,0A19.6,19.6,0,0,1,88.32,291.12Z" transform="translate(-44.63 -257)"/><path class="cls-1" d="M164.26,537.2c.12-.45.44-.56.88-.56,3.19,0,6.38,0,9.57,0,1.08,0,1.33.78.64,1.92-2.67.17-5.35,0-8,.08-.35,0-.71-.1-1,.1l-.06,1.12c-.21.71,0,1.44-.12,2.16.08.13-.33.67.23.37a9.07,9.07,0,0,1,2.82-.79,4,4,0,0,1,1.34,0,6.71,6.71,0,0,1,5.05,2.86,8.2,8.2,0,0,1,.82,2.23,10,10,0,0,1,0,2.12c-.93,4.52-5,5.64-8.71,4.81a5,5,0,0,1-3.95-3.34c-.12-.37,0-.75-.21-1.08a6.27,6.27,0,0,1,0-1.73c.81-.69,1.72-.42,1.91.57a4.64,4.64,0,0,0,6.93,3.37,3.85,3.85,0,0,0,2.08-4.11,4,4,0,0,0-2.91-3.48c-2.12-.6-4.43-.11-5.53,1.68a2.08,2.08,0,0,1-.49.44,1.65,1.65,0,0,1-1,0c-1-.31-.37-1.16-.58-1.74a23,23,0,0,0,.13-2.35l.07-2.49C164.35,538.65,164.11,537.92,164.26,537.2Z" transform="translate(-44.63 -257)"/><path class="cls-3" d="M135.4,291.12a2,2,0,0,0-1-.13q-17.88,0-35.75,0c-.91,0-1.1.27-1.1,1.13q0,111.76,0,223.52a2.05,2.05,0,0,0,.12,1c-.36-.26-.22-.65-.22-1q0-111.85,0-223.72c0-.83.2-1.09,1.07-1.09q18,0,35.94,0C134.75,290.9,135.14,290.75,135.4,291.12Z" transform="translate(-44.63 -257)"/><path class="cls-3" d="M229.77,291.06c-.32,0-.64-.06-1-.07q-17.92,0-35.84,0c-.92,0-1.1.27-1.1,1.13q0,111.7,0,223.42a2.21,2.21,0,0,0,.13,1.14c-.43-.36-.22-.85-.22-1.27q0-110.88,0-221.76c0-.65,0-1.29,0-1.94s.23-.88.85-.8h36C229,290.9,229.44,290.76,229.77,291.06Z" transform="translate(-44.63 -257)"/><path class="cls-1" d="M133.57,545.19c0,2.36,0,4.71,0,7.07,0,.42.1.9-.35,1.2a1.26,1.26,0,0,1-1.12.13c-.43-.14-.33-.64-.33-1,0-3.87,0-7.74,0-11.61,0-.27.15-.66-.12-.79s-.49.31-.74.48c-.63.44-.92,1.4-1.91,1.29-.28,0-.69.27-.83-.2a1.1,1.1,0,0,1,.21-1.24c.79-.72,1.52-1.49,2.27-2.25a4,4,0,0,0,.85-1,1.19,1.19,0,0,1,1.49-.55c.63.16.59.7.59,1.16C133.58,540.29,133.57,542.74,133.57,545.19Z" transform="translate(-44.63 -257)"/><path class="cls-3" d="M182.46,516.66a2.21,2.21,0,0,0,.12-1.14q0-47.37,0-94.75c0-.95-.19-1.25-1.19-1.23-4,.06-8.08,0-12.11,0-.85,0-1.07.21-1.07,1.07q0,31.54,0,63.1,0,9.35,0,18.68c0,.35.11.71-.1,1V420.78c0-1.32,0-1.32,1.29-1.32,4.07,0,8.14,0,12.2,0,.77,0,1.06.16,1.06,1q0,47.67,0,95.33C182.68,516.08,182.8,516.44,182.46,516.66Z" transform="translate(-44.63 -257)"/><path class="cls-3" d="M182.46,388.09a2.22,2.22,0,0,0,.12-1.14q0-47.38,0-94.76c0-1-.2-1.23-1.2-1.22-11.88,0-23.76,0-35.64,0-.35,0-.7.05-1.06.07.3-.28.68-.17,1-.17q17.91,0,35.83,0c.85,0,1.16.17,1.16,1.11q0,47.56,0,95.13C182.68,387.44,182.83,387.83,182.46,388.09Z" transform="translate(-44.63 -257)"/><path class="cls-3" d="M206.32,397.13c-.2-.29-.09-.63-.09-.94q0-45.46,0-90.94c0-1,.3-1.21,1.23-1.18,2.36.06,4.71,0,7.07,0,.29,0,.64-.18.88.15h-7.55c-1.41,0-1.51.1-1.51,1.47v91.41Z" transform="translate(-44.63 -257)"/><path class="cls-3" d="M135.4,419.69a2,2,0,0,0-1-.12c-4.1,0-8.2,0-12.3,0-.88,0-1,.25-1,1.07q0,40.89,0,81.77c0,.35.18.76-.16,1.07V420.82c0-1.36,0-1.36,1.35-1.36h12.1C134.68,419.47,135.11,419.3,135.4,419.69Z" transform="translate(-44.63 -257)"/><path class="cls-3" d="M112,503.43c-.2-.29-.09-.63-.09-.94q0-45.56,0-91.11c0-.32-.11-.65.09-.94Z" transform="translate(-44.63 -257)"/><path class="cls-3" d="M206.32,503.43c-.2-.29-.09-.63-.09-.94q0-45.56,0-91.11c0-.32-.11-.65.09-.94Z" transform="translate(-44.63 -257)"/><path class="cls-3" d="M112,304.25c.24-.32.59-.15.89-.15,2.38,0,4.78,0,7.16,0,.92,0,1,.29,1,1.09q0,40.85,0,81.68c0,.42,0,.84.07,1.25-.44-.35-.23-.84-.23-1.26q0-40.6,0-81.22c0-1.35,0-1.35-1.35-1.35Z" transform="translate(-44.63 -257)"/><path class="cls-3" d="M112,397.13c-.2-.29-.09-.63-.09-.94q0-45.49,0-91c0-.32-.1-.65.09-.94Z" transform="translate(-44.63 -257)"/><path class="cls-3" d="M168.15,304.26a2.07,2.07,0,0,1,.1,1.13q0,40.68,0,81.37a2.74,2.74,0,0,0,.12,1.33c-.41-.33-.22-.78-.22-1.18Q168.15,345.59,168.15,304.26Z" transform="translate(-44.63 -257)"/><path class="cls-3" d="M229.77,419.64c-2.82,0-5.65-.07-8.47-.07-2,0-3.92,0-5.87.07.23-.25.53-.17.81-.17q6.36,0,12.71,0C229.23,419.47,229.54,419.39,229.77,419.64Z" transform="translate(-44.63 -257)"/><path class="cls-3" d="M182.51,410.37c0-3.21.07-6.42.06-9.62a15.63,15.63,0,0,0-.11-3.55c.28.17.22.44.22.69q0,5.92,0,11.85A.76.76,0,0,1,182.51,410.37Z" transform="translate(-44.63 -257)"/><path class="cls-3" d="M159.1,304.25c.09-.25.31-.16.48-.16h8.07c.18,0,.39-.07.5.16Z" transform="translate(-44.63 -257)"/><path class="cls-3" d="M165.48,538.75c.24-.33.59-.16.88-.16,2.73,0,5.45,0,8.18,0-.29.29-.66.17-1,.17Z" transform="translate(-44.63 -257)"/><path class="cls-3" d="M163.45,537.2a8.66,8.66,0,0,1-.13,2.16A6.29,6.29,0,0,1,163.45,537.2Z" transform="translate(-44.63 -257)"/><path class="cls-3" d="M163.7,545.94h1A.73.73,0,0,1,163.7,545.94Z" transform="translate(-44.63 -257)"/><path class="cls-1" d="M162.2,547.66a4.45,4.45,0,0,0-2.69-3.37,4.52,4.52,0,0,0,1.9-2.45,5.64,5.64,0,0,0,0-1.74,4.25,4.25,0,0,0-2.67-3.12,10.56,10.56,0,0,0-2.6-.6,3.36,3.36,0,0,0-1.34,0l-.67.07c-2.89.41-4.28,1.34-4.62,3.85a4.3,4.3,0,0,0,0,1.34,4.09,4.09,0,0,0,1.62,2.61,4.1,4.1,0,0,0-2.38,3.21,8.85,8.85,0,0,0,0,2.12,4.71,4.71,0,0,0,1.63,2.91,8.29,8.29,0,0,0,5.79,1.34c2.42-.14,5.25-.93,6-4.25A7.71,7.71,0,0,0,162.2,547.66Zm-9.33-8.87a7.6,7.6,0,0,1,5.18,0,2.3,2.3,0,0,1,1.38,2.24,2,2,0,0,1-1.44,1.86,6.31,6.31,0,0,1-5.16,0,1.91,1.91,0,0,1-1.35-1.81A2.3,2.3,0,0,1,152.87,538.79Zm5.8,12.37a7.12,7.12,0,0,1-6.33.07,2.82,2.82,0,0,1-1.65-3.1,2.69,2.69,0,0,1,2.07-2.39,8.08,8.08,0,0,1,2.76-.38,7.8,7.8,0,0,1,2.76.41,2.64,2.64,0,0,1,1.92,2.41A2.78,2.78,0,0,1,158.67,551.16Z" transform="translate(-44.63 -257)"/><path class="cls-1" d="M147.8,541.85c-.21-.36,0-.78-.13-1.16-.87-3.75-4-4.83-7.12-4.4s-5,2.29-4.79,6.27c.11,2.18,2.18,4.84,4.69,5,.34.11.7,0,1,.12H142c.38-.2.8,0,1.19-.14a9.59,9.59,0,0,0,2.47-1c.43,3.3-.62,4.89-3,5.43a4.23,4.23,0,0,1-1.84,0c-1.81-.15-2.95-1.29-3.19-3.41-.08-.7-.36-1-1-1s-.94.46-1,1.08c.19.32,0,.68.14,1a5.06,5.06,0,0,0,4.9,4.31,8.76,8.76,0,0,0,2.11,0,5.53,5.53,0,0,0,4.9-4.3c.14-.38-.08-.8.14-1.17Zm-6,3.87a3.83,3.83,0,1,1,4.05-3.83A3.76,3.76,0,0,1,141.78,545.72Z" transform="translate(-44.63 -257)"/><polygon class="cls-1" points="0 0 0 293.19 76.63 293.19 76.63 282.13 11.07 282.13 11.07 11.01 203.54 11.01 203.54 282.13 137.64 282.13 137.64 293.19 214.59 293.19 214.59 0 0 0"/><line class="cls-4" x1="237.64" x2="237.64" y2="293.19"/><text class="cls-5" transform="translate(255.55 123.04)"><tspan class="cls-6">R</tspan><tspan x="69.14" y="0">ama IEEE</tspan></text><text class="cls-7" transform="translate(260.7 238.43)">Unicauca</text></svg>