<svg width="104" height="47" viewBox="0 0 104 47" fill="none" xmlns="http://www.w3.org/2000/svg">
<path d="M10.7945 23.1569L11.0906 22.826L10.797 22.4929L1.10724 11.5H102.405L92.715 22.4929L92.4213 22.826L92.7175 23.1569L102.394 33.9706H1.11835L10.7945 23.1569Z" fill="#DF9505" stroke="white"/>
<path d="M83.495 38.9361L84.6744 39.863L83.495 38.9361L80.2118 43.1139C78.95 44.7194 77.311 45.5 75.7822 45.5H27.2177C25.5675 45.5 24.0609 44.7333 22.7882 43.1139L21.6088 44.0407L22.7882 43.1139L19.5049 38.9361C18.2343 37.3192 17.5 35.0463 17.5 32.7259V14.2741C17.5 11.9537 18.2343 9.6808 19.5049 8.06391L22.7882 3.88611L22.7882 3.88611C24.05 2.28055 25.6889 1.5 27.2177 1.5H75.7822C77.4324 1.5 78.9391 2.26669 80.2118 3.8861L83.495 8.06389C84.7657 9.68083 85.5 11.9537 85.5 14.2741V32.7259C85.5 35.2085 84.7723 37.3108 83.495 38.9361Z" fill="white" stroke="white" stroke-width="3"/>
<path d="M23.6123 4.75201L23.6123 4.752C24.8246 3.24049 26.4041 2.5 27.8843 2.5H75.0056C76.6033 2.5 78.0546 3.22701 79.2777 4.75199L82.4633 8.72404L83.6335 7.78557L82.4633 8.72405C83.6844 10.2466 84.39 12.3867 84.39 14.5711V32.1143C84.39 34.4521 83.6912 36.4303 82.4633 37.9613L79.2777 41.9334C78.0655 43.4449 76.4858 44.1854 75.0056 44.1854H27.8843C26.2867 44.1854 24.8354 43.4584 23.6123 41.9334L20.4266 37.9613C19.2055 36.4388 18.5 34.2987 18.5 32.1143V14.5711C18.5 12.3867 19.2055 10.2466 20.4266 8.72406C20.4266 8.72405 20.4266 8.72405 20.4266 8.72405L23.6123 4.75201Z" fill="white" stroke="#002B4C" stroke-width="3"/>
<mask id="path-4-inside-1" fill="white">
<path d="M75.5819 6.51471L80.5202 12.9102V33.9481L75.5819 40.3436H26.978L22.0396 33.9481V12.9102L26.978 6.51471H75.5819ZM76.1018 5H26.5881L21 12.237V34.453L26.5881 41.69H76.1018L81.6899 34.453V12.237L76.1018 5Z"/>
</mask>
<path d="M75.5819 6.51471L80.5202 12.9102V33.9481L75.5819 40.3436H26.978L22.0396 33.9481V12.9102L26.978 6.51471H75.5819ZM76.1018 5H26.5881L21 12.237V34.453L26.5881 41.69H76.1018L81.6899 34.453V12.237L76.1018 5Z" fill="#002B4C"/>
<path d="M75.5819 6.51471L77.9564 4.68122L77.0557 3.51471H75.5819V6.51471ZM80.5202 12.9102H83.5202V11.8868L82.8947 11.0767L80.5202 12.9102ZM80.5202 33.9481L82.8947 35.7816L83.5202 34.9715V33.9481H80.5202ZM75.5819 40.3436V43.3436H77.0557L77.9564 42.1771L75.5819 40.3436ZM26.978 40.3436L24.6035 42.1771L25.5042 43.3436H26.978V40.3436ZM22.0396 33.9481H19.0396V34.9715L19.6651 35.7816L22.0396 33.9481ZM22.0396 12.9102L19.6651 11.0767L19.0396 11.8868V12.9102H22.0396ZM26.978 6.51471V3.51471H25.5042L24.6035 4.68122L26.978 6.51471ZM76.1018 5L78.4763 3.1665L77.5755 2H76.1018V5ZM26.5881 5V2H25.1143L24.2136 3.1665L26.5881 5ZM21 12.237L18.6255 10.4035L18 11.2136V12.237H21ZM21 34.453H18V35.4764L18.6255 36.2865L21 34.453ZM26.5881 41.69L24.2136 43.5235L25.1143 44.69H26.5881V41.69ZM76.1018 41.69V44.69H77.5755L78.4763 43.5235L76.1018 41.69ZM81.6899 34.453L84.0644 36.2865L84.6899 35.4764V34.453H81.6899ZM81.6899 12.237H84.6899V11.2136L84.0644 10.4035L81.6899 12.237ZM73.2074 8.34821L78.1457 14.7437L82.8947 11.0767L77.9564 4.68122L73.2074 8.34821ZM77.5202 12.9102V33.9481H83.5202V12.9102H77.5202ZM78.1457 32.1146L73.2074 38.5101L77.9564 42.1771L82.8947 35.7816L78.1457 32.1146ZM75.5819 37.3436H26.978V43.3436H75.5819V37.3436ZM29.3525 38.5101L24.4141 32.1146L19.6651 35.7816L24.6035 42.1771L29.3525 38.5101ZM25.0396 33.9481V12.9102H19.0396V33.9481H25.0396ZM24.4141 14.7437L29.3525 8.34821L24.6035 4.68122L19.6651 11.0767L24.4141 14.7437ZM26.978 9.51471H75.5819V3.51471H26.978V9.51471ZM76.1018 2H26.5881V8H76.1018V2ZM24.2136 3.1665L18.6255 10.4035L23.3745 14.0705L28.9626 6.8335L24.2136 3.1665ZM18 12.237V34.453H24V12.237H18ZM18.6255 36.2865L24.2136 43.5235L28.9626 39.8565L23.3745 32.6195L18.6255 36.2865ZM26.5881 44.69H76.1018V38.69H26.5881V44.69ZM78.4763 43.5235L84.0644 36.2865L79.3154 32.6195L73.7272 39.8565L78.4763 43.5235ZM84.6899 34.453V12.237H78.6899V34.453H84.6899ZM84.0644 10.4035L78.4763 3.1665L73.7272 6.8335L79.3154 14.0705L84.0644 10.4035Z" fill="#002B4C" mask="url(#path-4-inside-1)"/>
<path d="M59.5622 26.4913L59.5446 26.5089L59.5297 26.5288C59.1555 27.0272 58.8152 27.4766 58.3701 27.8101L58.3618 27.8163L58.354 27.823C56.8144 29.1244 54.8029 29.9515 52.5546 29.9515C48.4129 29.9515 45.0164 27.245 44.2979 23.7606C44.3025 23.6939 44.3218 23.6237 44.3511 23.5769C44.3661 23.5531 44.3791 23.5422 44.3875 23.5371C44.3938 23.5333 44.4076 23.5263 44.4386 23.5263H62.146C62.4442 23.5263 62.7131 23.3809 62.9006 23.1936C63.0881 23.0063 63.2338 22.7375 63.2338 22.4392V22.4378V22.4364V22.4349V22.4335V22.432V22.4306V22.4292V22.4277V22.4263V22.4248V22.4234V22.422V22.4205V22.4191V22.4176V22.4162V22.4148V22.4133V22.4119V22.4104V22.409V22.4076V22.4061V22.4047V22.4032V22.4018V22.4004V22.3989V22.3975V22.396V22.3946V22.3931V22.3917V22.3903V22.3888V22.3874V22.3859V22.3845V22.383V22.3816V22.3802V22.3787V22.3773V22.3758V22.3744V22.3729V22.3715V22.37V22.3686V22.3671V22.3657V22.3643V22.3628V22.3614V22.3599V22.3585V22.357V22.3556V22.3541V22.3527V22.3512V22.3498V22.3483V22.3469V22.3454V22.344V22.3425V22.3411V22.3396V22.3382V22.3367V22.3353V22.3338V22.3323V22.3309V22.3294V22.328V22.3265V22.3251V22.3236V22.3221V22.3207V22.3192V22.3178V22.3163V22.3149V22.3134V22.3119V22.3105V22.309V22.3075V22.3061V22.3046V22.3032V22.3017V22.3002V22.2988V22.2973V22.2958V22.2944V22.2929V22.2914V22.29V22.2885V22.287V22.2856V22.2841V22.2826V22.2811V22.2797V22.2782V22.2767V22.2752V22.2738V22.2723V22.2708V22.2693V22.2679V22.2664V22.2649V22.2634V22.2619V22.2605V22.259V22.2575V22.256V22.2545V22.2531V22.2516V22.2501V22.2486V22.2471V22.2456V22.2441V22.2426V22.2412V22.2397V22.2382V22.2367V22.2352V22.2337V22.2322V22.2307V22.2292V22.2277V22.2262V22.2247V22.2232V22.2217V22.2202V22.2187V22.2172V22.2157V22.2142V22.2127V22.2112V22.2097V22.2082V22.2067V22.2052V22.2036V22.2021V22.2006V22.1991V22.1976V22.1961V22.1946V22.193V22.1915V22.19V22.1885V22.187V22.1855V22.1839V22.1824V22.1809V22.1794V22.1778V22.1763V22.1748V22.1732V22.1717V22.1702V22.1687V22.1671V22.1656V22.1641V22.1625V22.161V22.1594V22.1579V22.1564V22.1548V22.1533V22.1517V22.1502V22.1486V22.1471V22.1455V22.144V22.1424V22.1409V22.1393V22.1378V22.1362V22.1347V22.1331V22.1316V22.13V22.1284V22.1269V22.1253V22.1238V22.1222V22.1206V22.1191V22.1175V22.1159V22.1144V22.1128V22.1112V22.1096V22.1081V22.1065V22.1049V22.1033V22.1017V22.1002V22.0986V22.097V22.0954V22.0938V22.0922V22.0906V22.0891V22.0875V22.0859V22.0843V22.0827V22.0811V22.0795V22.0779V22.0763V22.0747V22.0731V22.0715V22.0699V22.0683V22.0666V22.065V22.0634V22.0618V22.0602V22.0586V22.057V22.0553V22.0537V22.0521V22.0505V22.0489V22.0472V22.0456V22.044V22.0423V22.0407V22.0391V22.0374V22.0358V22.0342V22.0325V22.0309V22.0293V22.0276V22.026V22.0243V22.0227V22.021V22.0194V22.0177V22.0161V22.0144V22.0127V22.0111V22.0094V22.0078V22.0061V22.0044V22.0028V22.0011V21.9994V21.9978V21.9961V21.9944V21.9927V21.9911V21.9894V21.9877V21.986V21.9843V21.9826V21.981V21.9793V21.9776V21.9759V21.9742V21.9725V21.9708V21.9691V21.9674V21.9657V21.964V21.9623V21.9606V21.9589V21.9572V21.9554V21.9537V21.952V21.9503V21.9486V21.9469V21.9451V21.9434V21.9417V21.9399V21.9382V21.9365V21.9348V21.933V21.9313V21.9295V21.9278V21.9261V21.9243V21.9226V21.9208V21.9191V21.9173V21.9156V21.9138V21.912V21.9103V21.9085V21.9068V21.905V21.9032V21.9015V21.8997V21.8979V21.8961V21.8944V21.8926V21.8908V21.889V21.8872V21.8854V21.8837V21.8819V21.8801V21.8783V21.8765V21.8747V21.8729V21.8711V21.8693V21.8675V21.8657V21.8639V21.862V21.8602V21.8584V21.8566V21.8548V21.8529V21.8511V21.8493V21.8475V21.8456V21.8438V21.842V21.8401V21.8383V21.8364V21.8346V21.8328V21.8309V21.8291V21.8272V21.8254V21.8235V21.8216V21.8198V21.8179V21.8161V21.8142V21.8123V21.8104V21.8086V21.8067V21.8048V21.8029V21.8011V21.7992V21.7973V21.7954V21.7935V21.7916V21.7897V21.7878V21.7859V21.784V21.7821V21.7802V21.7783V21.7764V21.7745V21.7726V21.7706V21.7687V21.7668V21.7649V21.7629V21.761V21.7591V21.7571V21.7552V21.7533V21.7513V21.7494V21.7474V21.7455V21.7435V21.7416V21.7396V21.7377V21.7357V21.7337V21.7318V21.7298V21.7278V21.7259V21.7239V21.7219V21.7199V21.718V21.716V21.714V21.712V21.71V21.708V21.706V21.704V21.702V21.7V21.698V21.696V21.694V21.692V21.6899V21.6879V21.6859V21.6839V21.6819V21.6798V21.6778V21.6758V21.6737V21.6717V21.6696V21.6676V21.6655V21.6635V21.6614V21.6594V21.6573V21.6553V21.6532V21.6511V21.6491V21.647V21.6449V21.6429V21.6408V21.6387V21.6366V21.6345V21.6324V21.6303V21.6282V21.6261V21.624V21.6219V21.6198V21.6177V21.6156V21.6135V21.6114V21.6093V21.6071V21.605V21.6029V21.6008V21.5986V21.5965V21.5944V21.5922V21.5901V21.5879V21.5858V21.5836V21.5815V21.5793V21.5614L63.232 21.5436C62.719 16.5466 58.1157 12.7528 52.5546 12.7528C47.1177 12.7528 42.643 16.4204 42.0014 21.1638L41.9983 21.1872V21.1973C41.9884 21.2035 41.9716 21.2115 41.9469 21.2181C41.9204 21.2251 41.8893 21.2293 41.8564 21.2293H26.1165C25.8184 21.2293 25.5494 21.3747 25.3619 21.562C25.1744 21.7493 25.0287 22.0182 25.0287 22.3164V22.4392C25.0287 22.7375 25.1744 23.0063 25.3619 23.1936C25.5494 23.3809 25.8184 23.5263 26.1165 23.5263H37.0606C37.0698 23.5263 37.1083 23.5345 37.1514 23.5775C37.1945 23.6206 37.2025 23.6588 37.2025 23.6677V23.6832L37.2038 23.6985C37.5837 27.9993 40.1155 31.6545 43.7624 33.9159L43.776 33.9243L43.7904 33.9315C43.9958 34.0341 44.2357 34.0496 44.4414 33.9469C44.6554 33.8399 44.7886 33.6245 44.7886 33.3727V32.2671C44.7886 32.2641 44.7887 32.2605 44.7888 32.2563C44.7895 32.2111 44.7912 32.0974 44.7363 31.9877C44.708 31.9311 44.6724 31.8885 44.6469 31.8601C44.6232 31.8339 44.5943 31.805 44.5674 31.7781L44.5631 31.7738L44.541 31.7518L44.5155 31.734C41.7756 29.8299 39.9891 26.9814 39.5031 23.7782C39.5075 23.7616 39.5202 23.7323 39.5521 23.7004C39.5952 23.6573 39.6337 23.6492 39.643 23.6492H41.8564C41.8893 23.6492 41.9204 23.6534 41.9469 23.6604C41.9716 23.667 41.9884 23.675 41.9983 23.6812V23.6913L42.0014 23.7146C42.6434 28.4605 47.2433 32.1257 52.5546 32.1257C55.9711 32.1257 58.8888 30.7348 60.9205 28.5809C60.9285 28.5733 60.9331 28.5706 60.9341 28.5701L60.9345 28.5698C60.9354 28.5693 60.9367 28.5688 60.9397 28.568C60.9439 28.567 60.9524 28.5654 60.9689 28.5643C60.9869 28.5632 61.0067 28.5631 61.0393 28.5631H63.7446C63.7659 28.5631 63.814 28.581 63.8466 28.6462C63.8609 28.6748 63.863 28.6968 63.8624 28.7063C63.8624 28.7064 63.8624 28.7064 63.8624 28.7064L63.8444 28.7243L63.8268 28.7494C63.004 29.9237 61.9492 30.9836 60.7778 31.8137C60.7277 31.8285 60.6774 31.8525 60.6305 31.889C60.5424 31.9575 60.4987 32.0444 60.4767 32.1103C60.4423 32.2135 60.443 32.3292 60.4434 32.379C60.4434 32.3831 60.4434 32.3868 60.4434 32.3899V33.4956C60.4434 33.7474 60.5766 33.9628 60.7907 34.0697C60.9964 34.1725 61.2363 34.157 61.4416 34.0544L61.4585 34.0459L61.4744 34.0358C63.2281 32.9095 64.7397 31.5275 65.8768 29.8866L65.8768 29.8867L65.8802 29.8815C66.1317 29.5047 66.3791 29.0136 66.6143 28.5438C66.6589 28.4999 66.6918 28.4692 66.7213 28.4471C66.7249 28.4444 66.7281 28.4421 66.7308 28.4402H77.1481C77.4462 28.4402 77.7152 28.2948 77.9027 28.1075C78.0902 27.9202 78.2359 27.6514 78.2359 27.3532V27.2303V27.1735L78.2179 27.1195C78.136 26.8741 77.9775 26.6393 77.7817 26.4633C77.5885 26.2896 77.3243 26.1432 77.0251 26.1432H60.1786C60.003 26.1432 59.8659 26.2287 59.7843 26.2899C59.7024 26.3512 59.6256 26.428 59.5692 26.4843L59.5622 26.4913ZM44.1747 21.1187C44.8929 17.6339 48.2896 14.927 52.4315 14.927C56.5732 14.927 59.9697 17.6334 60.6882 21.1179C60.6836 21.1846 60.6643 21.2547 60.635 21.3016C60.6201 21.3254 60.607 21.3363 60.5986 21.3413C60.5923 21.3452 60.5786 21.3521 60.5475 21.3521H44.3157C44.3116 21.3521 44.1865 21.3187 44.1747 21.1187Z" fill="#002B4C" stroke="#002B4C" stroke-width="0.7"/>
</svg>
