<svg width="104" height="70" viewBox="0 0 104 70" fill="none" xmlns="http://www.w3.org/2000/svg">
<path d="M10.7945 35.7448L11.0906 35.4139L10.797 35.0808L1.10724 24.0879H102.405L92.715 35.0808L92.4213 35.4139L92.7175 35.7448L102.394 46.5585H1.11835L10.7945 35.7448Z" fill="#DF9505" stroke="#FFFBFB"/>
<path d="M86.5 34.9662C86.5 54.0555 71.1089 69.4324 52 69.4324C32.8911 69.4324 17.5 54.0555 17.5 34.9662C17.5 15.8769 32.8911 0.5 52 0.5C71.1089 0.5 86.5 15.8769 86.5 34.9662Z" fill="#002B4C" stroke="white"/>
<path d="M52 63C36.5823 63 24 50.4177 24 35C24 19.5823 36.5823 7 52 7C67.4177 7 80 19.5823 80 35C80 50.4177 67.4177 63 52 63Z" fill="white"/>
<path d="M52 61C37.6852 61 26 49.3148 26 35C26 20.6852 37.6852 9 52 9C66.3148 9 78 20.6852 78 35C78 49.3148 66.3148 61 52 61Z" stroke="#002B4C" stroke-width="2"/>
<path d="M60.9616 52.2983L55.6386 46.9763C55.3984 46.736 55.0727 46.6026 54.7311 46.6026H53.8609C55.3343 44.7181 56.2098 42.3483 56.2098 39.7698C56.2098 33.6363 51.2391 28.6667 45.1052 28.6667C38.9712 28.6667 34 33.6363 34 39.7698C34 45.9032 38.9707 50.8729 45.1052 50.8729C47.6837 50.8729 50.0545 49.9974 51.939 48.5239V49.3941C51.939 49.7358 52.0725 50.0614 52.3127 50.3017L57.6357 55.6237C58.1376 56.1255 58.949 56.1255 59.4455 55.6237L60.9563 54.1128C61.4581 53.611 61.4581 52.8001 60.9616 52.2983ZM45.1052 47.4562C40.8589 47.4562 37.4177 44.0214 37.4177 39.7698C37.4177 35.524 40.8531 32.0834 45.1052 32.0834C49.3514 32.0834 52.7926 35.5182 52.7926 39.7698C52.7926 44.0155 49.3573 47.4562 45.1052 47.4562ZM46.5525 39.3128L44.1496 38.5921C43.8741 38.5094 43.6814 38.2301 43.6814 37.9125C43.6814 37.5244 43.9643 37.2084 44.3113 37.2084H45.812C46.0554 37.2084 46.2903 37.2772 46.4964 37.4069C46.6694 37.5153 46.8893 37.5089 47.0372 37.368L47.6645 36.7695C47.8529 36.5896 47.8422 36.2778 47.634 36.1214C47.1482 35.7568 46.5621 35.5465 45.9593 35.5155V34.6459C45.9593 34.4099 45.7682 34.2188 45.5323 34.2188H44.6781C44.4421 34.2188 44.251 34.4099 44.251 34.6459V35.5064C42.9895 35.5401 41.9725 36.6035 41.9725 37.9125C41.9725 38.9786 42.666 39.931 43.6584 40.2289L46.0613 40.9496C46.3368 41.0323 46.5295 41.3116 46.5295 41.6292C46.5295 42.0173 46.2466 42.3334 45.8995 42.3334H44.3994C44.156 42.3334 43.9211 42.2645 43.715 42.1348C43.5421 42.0264 43.3221 42.0328 43.1742 42.1737L42.547 42.7722C42.3585 42.9521 42.3692 43.2639 42.5774 43.4203C43.0632 43.7849 43.6494 43.9952 44.2521 44.0262V44.8959C44.2521 45.1318 44.4432 45.3229 44.6792 45.3229H45.5333C45.7693 45.3229 45.9604 45.1318 45.9604 44.8959V44.0353C47.2219 44.0016 48.2389 42.9387 48.2389 41.6292C48.2389 40.5631 47.5454 39.6107 46.5525 39.3128Z" fill="#002B4C"/>
<path fill-rule="evenodd" clip-rule="evenodd" d="M63.1111 20.1885L64.8444 18.147C65.3229 17.7871 66 18.1288 66 18.7303V40.603C66 41.2045 65.3184 41.5463 64.8444 41.1863L63.1111 39.1448L60.6555 41.1863C60.5308 41.2816 60.3786 41.3333 60.2222 41.3333C60.0657 41.3333 59.9136 41.2816 59.7889 41.1863L57.3333 39.1448L57.3318 39.1461C57.3066 37.5913 56.9683 36.1126 56.3772 34.7703H62.75C62.9486 34.7703 63.1111 34.6063 63.1111 34.4058V33.6767C63.1111 33.4762 62.9486 33.3121 62.75 33.3121H55.6032C54.9003 32.1934 54.0073 31.2062 52.9696 30.3958H62.75C62.9486 30.3958 63.1111 30.2317 63.1111 30.0312V29.3021C63.1111 29.1016 62.9486 28.9376 62.75 28.9376H51.9166C51.718 28.9376 51.5555 29.1016 51.5555 29.3021V29.4528C50.6609 28.9487 49.6909 28.5625 48.6666 28.3155V18.7303C48.6666 18.1288 49.3437 17.7871 49.8222 18.147L51.5555 20.1885L54.0111 18.147C54.1358 18.0517 54.288 18.0001 54.4444 18.0001C54.6009 18.0001 54.753 18.0517 54.8777 18.147L57.3333 20.1885L59.7889 18.147C59.9136 18.0517 60.0657 18.0001 60.2222 18.0001C60.3786 18.0001 60.5308 18.0517 60.6555 18.147L63.1111 20.1885ZM62.75 26.0212C62.9486 26.0212 63.1111 25.8572 63.1111 25.6567V24.9276C63.1111 24.7271 62.9486 24.563 62.75 24.563H51.9166C51.718 24.563 51.5555 24.7271 51.5555 24.9276V25.6567C51.5555 25.8572 51.718 26.0212 51.9166 26.0212H62.75Z" fill="#002B4C"/>
</svg>
