<svg width="70" height="89" viewBox="0 0 70 89" fill="none" xmlns="http://www.w3.org/2000/svg">
<path d="M22 61.5H21.5V62V86.8828V87.8745L22.2973 87.2848L34.5349 78.2346L46.7725 87.2848L47.5698 87.8745V86.8828V62V61.5H47.0698H22Z" fill="#DF9505" stroke="white"/>
<path d="M69.5 34.9662C69.5 54.0555 54.1089 69.4324 35 69.4324C15.8911 69.4324 0.5 54.0555 0.5 34.9662C0.5 15.8769 15.8911 0.5 35 0.5C54.1089 0.5 69.5 15.8769 69.5 34.9662Z" fill="#490068" stroke="white"/>
<path d="M35 63C19.5823 63 7 50.4177 7 35C7 19.5823 19.5823 7 35 7C50.4177 7 63 19.5823 63 35C63 50.4177 50.4177 63 35 63Z" fill="white"/>
<path d="M35 61C20.6852 61 9 49.3148 9 35C9 20.6852 20.6852 9 35 9C49.3148 9 61 20.6852 61 35C61 49.3148 49.3148 61 35 61Z" stroke="#490068" stroke-width="2"/>
<path d="M35.1046 40.2991C35.9564 41.7297 37.1481 42.9067 38.2943 44.1114C39.7587 45.6549 41.075 47.3273 41.6777 49.4098C42.2172 51.2842 42.0117 53.1091 41.3141 54.9103C40.7844 56.2973 40.1283 57.607 39.5987 58.9861C40.4188 55.897 38.7963 52.9149 37.4643 50.1112C36.6676 48.4959 36.0938 46.7794 35.7588 45.009C35.4841 43.4535 35.4327 41.8406 35.1046 40.2991Z" fill="#490068"/>
<path d="M46.2371 51.9601C45.8695 48.7898 43.3913 46.2337 41.0118 44.1176C38.0356 41.4664 34.1818 38.8073 33.1067 34.7374L33.2115 34.5947C33.9486 35.1376 34.662 35.6885 35.4051 36.1957H35.417C35.6146 36.3384 35.8122 36.4771 36.0099 36.6079C36.2391 36.7525 36.4703 36.8873 36.7055 37.0042C36.7055 37.0042 36.7174 37.0042 36.7253 37.0042L36.751 37.018C37.7723 37.5219 38.8496 37.9024 39.9605 38.1514C42.2213 38.7082 44.4901 39.2828 45.9842 41.2207C48.3933 44.3395 45.8221 55.1304 46.2371 51.9601Z" fill="#490068"/>
<path d="M49.9191 33.2295H49.9507V33.281C47.1167 33.3523 44.3716 31.8603 42.3657 29.9304C40.7373 28.3611 39.757 26.5381 38.8815 24.4814C37.674 21.642 36.3124 17.3482 32.9527 16.4407C35.7195 15.1825 38.7254 16.5675 40.6878 18.6579C43.8499 22.066 42.923 24.1544 45.5179 29.1596C46.3874 30.8359 47.8064 33.1918 49.9507 33.2116V33.2275L49.9191 33.2295Z" fill="#490068"/>
<path d="M23.6246 18.2357C21.7985 19.6228 22.0752 22.3373 23.6483 23.9681C21.9546 23.5559 19.9922 22.9932 20.0001 19.6663C20.01 16.7397 23.1285 14.9109 25.7965 15.006C28.9941 15.1229 32.1997 17.2965 34.1582 19.708C38.4526 25.0004 36.9427 27.9944 44.9506 32.5675C46.4981 33.4513 48.0198 34.3508 49.2313 35.5397C50.3577 36.6394 51.2767 38.2404 51.2214 39.8632C51.1581 41.8229 49.8874 43.3585 48.5455 44.6603C48.5178 44.69 48.4823 44.6425 48.5079 44.6147L48.5771 44.5434L48.502 44.4721C48.502 44.4721 48.4882 44.4721 48.4862 44.4582C48.7194 42.8512 48.1483 41.0303 47.1443 39.776C46.2906 38.7061 45.0238 38.076 43.757 37.642C41.1265 36.7365 38.1858 36.8158 35.7076 35.4763C32.2431 33.6038 31.7155 29.7836 31.0791 26.0862C30.757 24.2356 30.4111 22.4106 29.6562 20.879C28.5416 18.5865 25.676 16.6902 23.6246 18.2357ZM50.8973 41.2641C50.5202 42.2439 49.9472 43.136 49.2135 43.8856C49.9485 43.137 50.5216 42.2446 50.8973 41.2641V41.2641Z" fill="#490068"/>
<path d="M23.9408 28.6382C23.1266 28.5569 22.7787 28.2597 22.7787 28.2597C23.1873 28.2509 23.5948 28.2131 23.9981 28.1468C23.9981 28.1329 22.1522 17.8591 27.0594 19.7197C27.9052 20.0427 29.7906 21.8616 30.3479 26.096C30.9052 30.3303 30.9408 34.0733 32.0574 36.1875C32.9388 37.8598 33.6206 38.6841 33.7866 39.7065C33.753 39.661 33.7194 39.6134 33.6839 39.5698C33.6048 39.4707 33.5218 39.3717 33.4388 39.2865C33.091 38.9298 32.6088 38.5256 32.172 38.4087C31.9342 38.3454 31.6835 38.3509 31.4487 38.4245C30.008 39.0982 26.5791 40.6358 25.336 39.3519C24.5949 38.587 25.1898 37.3347 24.9408 37.0138C24.6918 36.6928 23.9526 36.346 23.9764 36.0052C24.0001 35.6644 24.8993 35.4345 24.8024 35.2919C24.7056 35.1492 23.2214 35.0402 23.4052 34.5369C23.7115 33.7067 24.1957 33.6195 24.0554 33.2232C23.8578 32.6169 22.755 32.8547 22.1839 32.2979C21.4645 31.5985 22.2432 31.545 23.2293 30.1183C23.5657 29.6794 23.8079 29.1755 23.9408 28.6382V28.6382Z" fill="#490068"/>
<path d="M35.3024 40.7965C35.423 41.4919 35.5 42.1993 35.5791 42.8889C35.6582 43.5784 35.7352 44.2997 35.8578 44.9912C36.1876 46.7547 36.7582 48.4642 37.5534 50.0716L37.8597 50.7077C38.9941 53.0676 40.1621 55.4968 39.8775 58.039C40.0415 57.6526 40.2115 57.2682 40.3775 56.8917C40.6641 56.2379 40.9605 55.5622 41.2214 54.8845C41.9664 52.9625 42.085 51.1852 41.583 49.4475C40.9546 47.2679 39.5317 45.5698 38.2234 44.1907L37.8281 43.7825C36.9388 42.8552 36.0218 41.8981 35.2965 40.8103L35.3024 40.7965ZM35.0989 40.313C35.9506 41.7436 37.1423 42.9206 38.2886 44.1253C39.753 45.6688 41.0692 47.3412 41.672 49.4237C42.2115 51.2981 42.006 53.123 41.3083 54.9242C40.7787 56.3112 40.1226 57.6209 39.5929 59C40.4131 55.9109 38.7906 52.9289 37.4585 50.1251C36.6619 48.5098 36.0881 46.7933 35.753 45.0229C35.4783 43.4675 35.4269 41.8526 35.0989 40.313V40.313Z" fill="#490068"/>
<path d="M33.2411 34.7235L33.2233 34.7473C34.1127 38.1039 36.8814 40.4578 39.5652 42.7405C40.0949 43.1902 40.5949 43.6143 41.083 44.0502C43.4387 46.1446 45.8952 48.7006 46.3221 51.8076C46.5977 50.461 46.7819 49.0973 46.8735 47.7258C47.0237 45.5462 46.9782 42.6652 45.913 41.2861C44.4269 39.3561 42.1482 38.7954 39.9447 38.2545C38.8278 38.0053 37.744 37.6255 36.7154 37.1231H36.7055L36.6759 37.1112C36.4447 36.9923 36.2095 36.8556 35.9723 36.705C35.7747 36.5762 35.5771 36.4375 35.3795 36.2928H35.3696C34.8261 35.9203 34.2866 35.5181 33.7629 35.1277L33.253 34.7453L33.2411 34.7235ZM33.2312 34.6086C33.9684 35.1515 34.6818 35.7024 35.4249 36.2096H35.4368C35.6344 36.3523 35.832 36.491 36.0296 36.6217C36.2589 36.7664 36.4901 36.9011 36.7253 37.018C36.7253 37.018 36.7372 37.018 36.7451 37.018L36.7708 37.0319C37.7864 37.5296 38.857 37.9053 39.9605 38.1514C42.2213 38.7082 44.4901 39.2828 45.9842 41.2207C48.0889 43.9472 46.3794 52.5367 46.2035 52.5367C46.1779 52.5367 46.1838 52.3604 46.2352 51.9601C45.8676 48.7898 43.3893 46.2337 41.0099 44.1176C38.0336 41.4664 34.1798 38.8073 33.1047 34.7374L33.2095 34.5947L33.2312 34.6086Z" fill="#490068"/>
<path d="M35.1699 16.0541C34.5098 16.0529 33.8554 16.1766 33.2411 16.4187C36.081 17.3619 37.4486 20.7105 38.5533 23.4172C38.6996 23.7758 38.8379 24.1126 38.9743 24.4356C39.7628 26.2665 40.7134 28.1905 42.4387 29.8608C44.415 31.7551 46.7569 32.9261 48.992 33.148C47.3537 32.5813 46.1976 30.6891 45.4347 29.2089C44.6002 27.5903 43.9378 25.8881 43.4585 24.1305C42.8873 22.2085 42.4347 20.6927 40.6166 18.7271C39.0355 17.0349 37.0434 16.062 35.1719 16.062L35.1699 16.0541ZM35.1719 15.963C37.2351 15.963 39.243 17.1201 40.6897 18.6597C43.8517 22.0678 42.9249 24.1562 45.5197 29.1614C46.3893 30.8377 47.8082 33.1936 49.9525 33.2134V33.2293V33.2808H49.7549C46.9881 33.2808 44.3241 31.8125 42.3636 29.9282C40.7351 28.3589 39.7549 26.5359 38.8794 24.4792C37.6719 21.6398 36.3102 17.346 32.9506 16.4385C33.647 16.1215 34.4031 15.958 35.168 15.959L35.1719 15.963Z" fill="#490068"/>
<path d="M25.5871 15.1011C22.9428 15.1011 20.1068 16.9359 20.0989 19.6584C20.0989 22.7772 21.8282 23.4013 23.3598 23.7877C22.5934 22.8916 22.2038 21.7324 22.2728 20.554C22.3004 20.0848 22.4296 19.6273 22.6515 19.2132C22.8733 18.7992 23.1825 18.4386 23.5574 18.1564C24.0568 17.7747 24.6686 17.5705 25.2965 17.5759C27.176 17.5759 28.9586 19.2145 29.7471 20.8314C30.4922 22.3413 30.8361 24.0948 31.178 26.0664L31.2511 26.4924C31.844 29.9916 32.4665 33.6097 35.757 35.3871C37.2076 36.1797 38.8538 36.4709 40.4467 36.7622C41.5794 36.9431 42.6971 37.208 43.7906 37.5548C45.3894 38.1037 46.4803 38.7912 47.2234 39.7225C48.2688 41.0263 48.8044 42.869 48.593 44.4284L48.6206 44.4562C48.8183 44.2679 49.002 44.0738 49.1878 43.8716L49.1424 43.83C49.9783 42.9166 50.508 42.0963 50.8044 41.2442L50.8617 41.2641C51.0187 40.8144 51.1067 40.3433 51.1226 39.8671C51.17 38.4504 50.4368 36.8633 49.1621 35.6189C47.9882 34.4657 46.5376 33.5998 44.9013 32.6646C39.6503 29.6667 38.4625 27.3147 37.087 24.61C36.34 23.1358 35.5673 21.6121 34.0811 19.7832C32.3973 17.7086 29.2175 15.2417 25.7926 15.1169H25.595L25.5871 15.1011ZM25.595 15.0178H25.8044C29.0021 15.1347 32.2076 17.3084 34.1661 19.7198C38.4606 25.0122 36.9507 28.0062 44.9586 32.5794C46.506 33.4631 48.0277 34.3627 49.2392 35.5516C50.3657 36.6513 51.2847 38.2523 51.2293 39.8751C51.1661 41.8347 49.8953 43.3703 48.5534 44.6722C48.5515 44.6751 48.5489 44.6776 48.5458 44.6793C48.5427 44.681 48.5392 44.682 48.5356 44.6821C48.5297 44.6811 48.5242 44.6785 48.5196 44.6747C48.515 44.6708 48.5115 44.6658 48.5095 44.6602C48.5075 44.6545 48.507 44.6484 48.5081 44.6425C48.5092 44.6366 48.5119 44.6311 48.5159 44.6266L48.585 44.5552L48.5099 44.4839C48.5064 44.4835 48.5031 44.4819 48.5006 44.4794C48.4981 44.4769 48.4965 44.4736 48.4961 44.47C48.7293 42.8631 48.1582 41.0421 47.1542 39.7879C46.3005 38.7179 45.0337 38.0878 43.7669 37.6539C41.1364 36.7483 38.1957 36.8276 35.7175 35.4881C32.2531 33.6157 31.7254 29.7955 31.089 26.0981C30.7669 24.2474 30.421 22.4225 29.6661 20.8908C28.8242 19.161 27.0139 17.675 25.2965 17.675C24.6927 17.6713 24.1047 17.8685 23.6246 18.2357C21.7985 19.6227 22.0752 22.3373 23.6483 23.968C21.9546 23.5559 19.9922 22.9932 20.0001 19.6663C20.0001 16.815 22.9645 15 25.5871 15L25.595 15.0178ZM49.2135 43.8855C49.9485 43.137 50.5217 42.2446 50.8973 41.2641C50.5202 42.2439 49.9472 43.136 49.2135 43.8855V43.8855Z" fill="#490068"/>
<path d="M25.9704 19.5948C25.7244 19.5893 25.4804 19.64 25.2569 19.743C25.0333 19.8459 24.836 19.9986 24.6799 20.1893C23.1266 22.03 23.9902 27.4869 24.087 28.1031C24.0894 28.1176 24.0894 28.1323 24.087 28.1467V28.226L24.006 28.2399C23.7096 28.2874 23.4131 28.3191 23.1246 28.337C23.386 28.4434 23.6617 28.5102 23.9428 28.5351L24.0515 28.547L24.0297 28.654C23.8964 29.205 23.6508 29.7225 23.3084 30.1738C23.0393 30.5559 22.7385 30.9145 22.4092 31.2457C21.9566 31.7153 21.8479 31.8263 22.2491 32.2166C22.4961 32.4564 22.8538 32.5396 23.2017 32.6129C23.6226 32.708 24.0218 32.7992 24.1483 33.1776C24.2333 33.4372 24.1068 33.5937 23.9507 33.7919C23.7556 34.0178 23.6024 34.2768 23.4981 34.5567C23.4903 34.5727 23.4862 34.5904 23.4862 34.6082C23.4862 34.6261 23.4903 34.6437 23.4981 34.6597C23.593 34.8401 24.0811 34.9609 24.4052 35.0402C24.7293 35.1194 24.8301 35.1472 24.8795 35.2205C24.8904 35.2366 24.8977 35.2548 24.9011 35.2739C24.9046 35.293 24.9039 35.3126 24.8993 35.3315C24.8756 35.4305 24.7491 35.4979 24.5594 35.6009C24.3696 35.704 24.0791 35.8585 24.0712 35.9972C24.0633 36.1359 24.3341 36.3618 24.5732 36.5461C24.7365 36.6594 24.8852 36.7925 25.0159 36.9424C25.1285 37.091 25.1028 37.3387 25.0712 37.6715C25.0218 38.1828 24.9605 38.8188 25.3973 39.2706C25.6957 39.5797 26.1621 39.7362 26.7807 39.7362C28.2135 39.7362 30.1009 38.9298 31.3953 38.3215C31.5349 38.2818 31.6791 38.2611 31.8242 38.26C31.9417 38.2597 32.0588 38.2757 32.172 38.3076C32.6819 38.4443 33.2115 38.9337 33.4843 39.2131L33.5653 39.3003C33.3443 38.706 33.0601 38.1373 32.7175 37.6042C32.4862 37.2079 32.2273 36.7621 31.9447 36.2172C31.1285 34.6657 30.8815 32.2424 30.5969 29.4367C30.4882 28.3627 30.3756 27.2571 30.2234 26.092C29.6483 21.7189 27.6997 20.0704 26.9981 19.8029C26.6628 19.6678 26.306 19.594 25.9447 19.5849L25.9704 19.5948ZM25.9447 19.4858C26.3182 19.4941 26.6871 19.5699 27.0337 19.7097C27.9052 20.0426 29.7906 21.8616 30.3479 26.0959C30.9052 30.3303 30.9408 34.0732 32.0574 36.1874C32.9388 37.8598 33.6206 38.6841 33.7866 39.7065C33.753 39.6609 33.7194 39.6134 33.6839 39.5698C33.6048 39.4707 33.5218 39.3716 33.4388 39.2864C33.091 38.9298 32.6088 38.5255 32.172 38.4086C32.0671 38.3797 31.9587 38.3651 31.8499 38.365C31.716 38.3665 31.583 38.3865 31.4546 38.4245C30.4151 38.9119 28.338 39.8472 26.7965 39.8472C26.2036 39.8472 25.6878 39.7085 25.342 39.3518C24.6009 38.587 25.1957 37.3347 24.9467 37.0137C24.6977 36.6927 23.9586 36.346 23.9823 36.0051C24.006 35.6643 24.9052 35.4345 24.8084 35.2918C24.7115 35.1492 23.2273 35.0402 23.4111 34.5369C23.7175 33.7067 24.2017 33.6195 24.0613 33.2232C23.8637 32.6169 22.7609 32.8547 22.1898 32.2979C21.4704 31.5984 22.2491 31.5449 23.2353 30.1183C23.5698 29.6783 23.81 29.1737 23.9408 28.6362C23.1266 28.5549 22.7787 28.2577 22.7787 28.2577C23.1873 28.2488 23.5948 28.2111 23.9981 28.1448C23.9981 28.1309 22.4467 19.4938 25.9744 19.4938L25.9447 19.4858Z" fill="#490068"/>
</svg>
