<svg width="74" height="89" viewBox="0 0 74 89" fill="none" xmlns="http://www.w3.org/2000/svg">
<path d="M24.465 61.0232H23.965V61.5232V86.406V87.3976L24.7623 86.808L36.9999 77.7578L49.2374 86.808L50.0347 87.3976V86.406V61.5232V61.0232H49.5347H24.465Z" fill="#DF9505" stroke="white"/>
<path d="M72.393 36.6246L72.6361 36.3155L72.393 36.0064L67.169 29.3641L69.0686 21.1406L69.1588 20.7501L68.7973 20.577L61.2005 16.9404L59.3012 8.71804L59.2117 8.33057H58.814H50.429L45.2069 1.6909L44.9593 1.37606L44.598 1.54901L37 5.18621L29.402 1.54901L29.0407 1.37606L28.793 1.6909L23.5711 8.33057H15.1861H14.7884L14.6989 8.71804L12.7996 16.9404L5.20277 20.577L4.8413 20.7501L4.93149 21.1406L6.831 29.3641L1.60699 36.0064L1.36389 36.3155L1.60699 36.6246L6.831 43.2669L4.93149 51.4904L4.8413 51.8809L5.20277 52.054L12.7996 55.6906L14.6989 63.913L14.7884 64.3004H15.1861H23.5711L28.793 70.9401L29.0407 71.2549L29.402 71.082L37 67.4448L44.598 71.082L44.9593 71.2549L45.2069 70.9401L50.429 64.3004H58.814H59.2117L59.3012 63.913L61.2005 55.6906L68.7973 52.054L69.1588 51.8809L69.0686 51.4904L67.169 43.2669L72.393 36.6246ZM37 57.6083C25.2292 57.6083 15.6861 48.0737 15.6861 36.3155C15.6861 24.5573 25.2292 15.0227 37 15.0227C48.7708 15.0227 58.314 24.5573 58.314 36.3155C58.314 48.0737 48.7708 57.6083 37 57.6083Z" fill="#002B4C" stroke="white"/>
<path d="M37 64C21.5823 64 9 51.4177 9 36C9 20.5823 21.5823 8 37 8C52.4177 8 65 20.5823 65 36C65 51.4177 52.4177 64 37 64Z" fill="white"/>
<path d="M37 62C22.6852 62 11 50.3148 11 36C11 21.6852 22.6852 10 37 10C51.3148 10 63 21.6852 63 36C63 50.3148 51.3148 62 37 62Z" stroke="#002B4C" stroke-width="2"/>
<path d="M53.9206 28C54.2804 28 54.6402 27.8209 54.8201 27.2836C54.8201 27.1045 55 26.9254 55 26.7463C55 26.5672 55 26.5672 55 26.3881C54.8201 25.6716 53.7407 25.1343 52.8412 24.7761C52.6613 24.597 52.3015 24.597 52.1216 24.4179C50.8623 23.7015 49.4231 22.6269 47.804 21.7313C45.6452 20.4776 43.4864 19.2239 41.3276 18.1493C40.608 17.791 39.8884 17.2537 39.1688 16.8955L38.809 16.7164C38.2693 16.3582 37.5497 16 36.8301 16C36.6502 16 36.4703 16 36.2904 16C35.0311 16.3582 33.7717 17.0746 32.5124 17.6119C32.1526 17.791 31.6129 18.1493 31.2531 18.3284C28.0149 19.9403 24.5968 21.9105 20.8189 24.2388L20.6391 24.4179C19.9195 24.7761 18.84 25.4925 19.0199 26.5672C19.1998 27.8209 20.8189 28 21.3586 28H21.7184C21.7184 28.7164 21.7185 29.4328 22.4381 29.791C22.4381 31.2239 22.4381 32.6567 22.4381 34.0896C22.4381 35.7015 22.4381 37.6716 22.4381 39.4627C21.7185 39.8209 21.7184 40.1791 21.7184 40.8955C21.7184 41.9701 21.7184 43.2239 21.7184 44.2985V44.4776C21.7184 44.6567 21.7184 45.0149 21.7184 45.194C20.4591 45.5522 20.4591 46.6269 20.4591 47.7015C20.2792 47.7015 20.2793 47.7015 20.0994 47.8806C19.7396 48.0597 19.3797 48.4179 19.3797 48.7761C19.1998 49.4925 19.1998 50.5672 19.5596 51.1045C19.9194 51.6418 20.639 51.8209 21.3586 51.8209H21.5386C21.8984 51.8209 22.2582 51.8209 22.7979 51.8209C23.3376 51.8209 24.0572 51.8209 24.5969 51.8209C25.1366 51.8209 25.6763 51.8209 26.0361 51.8209C27.1155 51.8209 28.015 51.8209 29.0944 51.8209H29.2743C30.5336 51.8209 31.7928 51.8209 33.0521 51.8209C34.4913 51.8209 35.7507 51.8209 37.01 52C38.4492 52 40.0683 52 41.5075 52C43.3065 52 45.1055 52 47.0844 52C49.0634 52 50.8624 52 52.4815 52C53.381 52 54.1005 51.6418 54.4603 51.1045C54.8201 50.5672 54.8201 49.8507 54.6402 48.9552C54.4603 48.4179 54.1005 48.0597 53.5608 47.8806V47.7015C53.5608 46.9851 53.5608 46.0895 52.8412 45.5522C52.6613 45.5522 52.4815 45.3731 52.4815 45.3731C52.4815 45.0149 52.4815 44.6567 52.4815 44.2985C52.4815 43.2239 52.4815 42.1493 52.4815 41.0746C52.4815 40.3582 52.3015 40 51.7618 39.6418C51.7618 37.3134 51.582 34.9851 51.582 32.6567V29.791C51.7619 29.791 51.9417 29.6119 52.1216 29.4328C52.4814 29.0746 52.4815 28.5373 52.4815 28C52.6614 28 52.8412 28 53.0211 28C53.201 28.1791 53.5608 28.1791 53.9206 28ZM52.4815 48.9552C52.8413 48.9552 53.2011 48.9552 53.381 49.1343C53.5609 49.3134 53.5608 49.4925 53.5608 49.6716C53.5608 50.209 53.2011 50.3881 52.4815 50.3881C50.8624 50.3881 49.0633 50.5672 46.9045 50.5672C45.2854 50.5672 43.6663 50.5672 42.0471 50.5672C40.6079 50.5672 38.9889 50.5672 37.3698 50.5672C36.4703 50.5672 35.5708 50.5672 34.6713 50.5672C33.7718 50.5672 32.6924 50.5672 31.7929 50.5672C30.5336 50.5672 29.2743 50.5672 27.8351 50.5672C26.216 50.5672 24.5968 50.5672 23.1576 50.5672C22.9777 50.5672 22.7978 50.5672 22.6179 50.5672C22.438 50.5672 22.2581 50.5672 22.0782 50.5672C21.3586 50.5672 20.9989 50.3881 20.9989 49.6716C20.9989 49.4925 20.9989 49.1343 20.9989 49.1343C20.9989 49.1343 21.3587 48.9552 21.5386 48.9552C22.0783 48.7761 22.618 48.7761 23.3376 48.7761H23.6974C24.5969 48.7761 25.4963 48.7761 26.2159 48.7761C26.9355 48.7761 27.6552 48.7761 28.3748 48.7761C29.9939 48.7761 31.6129 48.7761 33.4119 48.7761C35.031 48.7761 36.6502 48.7761 38.2693 48.7761C41.3276 48.7761 44.5658 48.7761 48.3437 48.7761C48.3437 48.7761 51.402 48.7761 51.9417 48.7761L52.4815 48.9552ZM51.7618 46.4478C52.1216 46.6269 52.3015 46.9851 52.3015 47.5224C51.9417 47.5224 51.402 47.5224 51.0422 47.5224C50.6824 47.5224 50.5025 47.5224 50.1427 47.5224H49.9628C49.0633 47.5224 47.9839 47.5224 46.7246 47.5224C45.4653 47.5224 44.206 47.5224 42.9466 47.5224C41.8672 47.5224 40.7879 47.5224 39.7085 47.5224H39.1688C37.7296 47.5224 36.1105 47.5224 34.6713 47.5224C33.2321 47.5224 31.613 47.5224 30.1738 47.5224H29.2743C28.5547 47.5224 28.015 47.5224 27.2954 47.5224C26.3959 47.5224 25.4963 47.5224 24.7767 47.5224C24.5968 47.5224 24.4169 47.5224 24.0571 47.5224C23.5174 47.5224 22.618 47.5224 21.8984 47.5224C21.8984 46.806 22.0783 46.6269 22.7979 46.4478C22.9778 46.4478 23.3375 46.4478 23.8772 46.4478C24.0571 46.4478 24.237 46.4478 24.4169 46.4478C24.7767 46.4478 24.9567 46.4478 25.1366 46.4478C25.6763 46.4478 26.216 46.4478 26.9356 46.4478C28.015 46.4478 29.0944 46.4478 29.9939 46.4478H31.7929C34.6713 46.4478 37.5497 46.6269 40.4281 46.6269H40.7879C41.8673 46.6269 42.9467 46.6269 44.206 46.6269C45.1055 46.6269 46.005 46.6269 47.0844 46.6269H47.2643C47.6241 46.6269 47.9839 46.6269 48.3437 46.6269C48.7035 46.6269 49.0633 46.6269 49.603 46.6269C49.7829 46.6269 49.9628 46.6269 50.3226 46.6269C50.5025 46.6269 50.8623 46.6269 51.0422 46.6269C51.402 46.4478 51.5819 46.4478 51.7618 46.4478ZM23.3376 40.8955C23.3376 40.8955 23.5175 40.8955 23.6974 40.8955C23.8773 40.8955 23.8772 40.8955 24.0571 40.8955C24.237 40.8955 24.237 40.8955 24.4169 40.8955C24.7767 40.8955 25.3164 40.8955 25.8561 40.8955C26.036 40.8955 26.216 40.8955 26.5758 40.8955C26.9356 40.8955 27.2953 40.8955 27.6551 40.8955C27.835 40.8955 28.0149 40.8955 28.0149 40.8955C28.3747 41.0746 28.1949 41.6119 28.1949 41.9701C28.1949 42.1492 28.1949 42.1493 28.1949 42.3284C28.1949 43.0448 28.1949 43.9403 28.1949 44.6567V45.194H27.4753C27.1155 45.194 26.5758 45.194 26.0361 45.194C25.4964 45.194 24.7768 45.194 24.2371 45.194C23.6974 45.194 23.3375 45.194 22.9777 45.194C22.9777 44.2985 22.9777 43.2239 22.9777 42.3284V42.1493C22.9777 41.9702 22.9777 41.9701 22.9777 41.791C22.9777 41.2537 22.9778 40.8955 23.3376 40.8955ZM26.7556 28.8955C26.5757 28.8955 26.3958 28.8955 26.2159 28.8955C26.036 28.8955 25.8561 28.8955 25.8561 28.8955H25.3164C24.7767 28.8955 24.4169 28.8955 23.8772 28.8955C23.1576 28.8955 22.9777 28.7164 22.9777 28.1791C24.5968 28.1791 26.2159 28.1791 28.0149 28.1791C28.0149 28.5373 28.015 28.7164 27.8351 28.8955C27.6552 28.8955 26.9355 28.8955 26.7556 28.8955ZM27.4753 39.4627C27.2954 39.4627 27.1155 39.4627 26.9356 39.4627C26.7557 39.4627 26.3958 39.4627 26.2159 39.4627H26.0361C25.8562 39.4627 25.4963 39.4627 25.3164 39.4627C24.9566 39.4627 24.5968 39.4627 24.4169 39.4627C24.237 39.4627 24.0571 39.4627 23.8772 39.4627C23.8772 37.6716 23.8772 36.0597 23.8772 34.4478C23.8772 33.194 23.8772 31.7612 23.8772 30.3284C24.0571 30.3284 24.0572 30.3284 24.2371 30.3284C24.7768 30.3284 25.1365 30.3284 25.6762 30.3284C26.036 30.3284 26.216 30.3284 26.3959 30.3284H26.7556C26.9355 30.3284 27.1155 30.3284 27.4753 30.3284V33.0149C27.2954 34.9851 27.4753 37.1343 27.4753 39.4627ZM29.2743 28.1791C30.5336 28.1791 31.7929 28.1791 33.2321 28C33.2321 28.7164 33.232 29.6119 33.9516 29.9702C33.9516 31.403 33.9516 32.8358 33.9516 34.2687C33.9516 36.0597 33.9516 37.8507 33.9516 39.4627C33.232 39.8209 33.2321 40.1791 33.2321 40.8955C33.2321 41.9701 33.2321 43.2239 33.2321 44.2985V44.4776C33.2321 44.6567 33.2321 44.8358 33.2321 45.0149C31.9728 45.0149 30.7134 45.0149 29.4541 45.0149C29.4541 44.6567 29.4541 44.4776 29.4541 44.1194C29.4541 43.0448 29.4541 41.9701 29.4541 40.8955C29.4541 40.1791 29.2743 39.8209 28.7346 39.4627C28.7346 37.1343 28.5546 34.806 28.5546 32.4776V29.791C28.7345 29.791 28.9145 29.6119 29.0944 29.4328C29.4542 29.2537 29.4542 28.5373 29.2743 28.1791ZM34.6713 40.8955C34.6713 40.8955 34.8512 40.8955 35.0311 40.8955C35.211 40.8955 35.211 40.8955 35.3909 40.8955C35.5708 40.8955 35.5707 40.8955 35.7506 40.8955C36.1104 40.8955 36.6502 40.8955 37.1899 40.8955C37.3698 40.8955 37.5497 40.8955 37.9095 40.8955C38.2693 40.8955 38.6291 40.8955 38.9889 40.8955C39.1688 40.8955 39.3486 40.8955 39.3486 40.8955C39.7084 41.0746 39.5286 41.6119 39.5286 41.9701C39.5286 42.1492 39.5286 42.1493 39.5286 42.3284C39.5286 43.0448 39.5286 43.9403 39.5286 44.6567V45.3731C37.7296 45.3731 36.1105 45.3731 34.4914 45.3731C34.4914 44.4776 34.4914 43.5821 34.4914 42.6866V42.3284C34.4914 42.1493 34.4914 42.1492 34.4914 41.9701C34.4914 41.2537 34.4914 40.8955 34.6713 40.8955ZM35.211 30.3284C35.3909 30.3284 35.3909 30.3284 35.5708 30.3284C36.1105 30.3284 36.4703 30.3284 37.01 30.3284C37.3698 30.3284 37.5497 30.3284 37.7296 30.3284H38.0894C38.2693 30.3284 38.4492 30.3284 38.809 30.3284V32.8358C38.809 34.9851 38.809 37.3134 38.9889 39.6418C38.809 39.6418 38.629 39.6418 38.4491 39.6418C38.2692 39.6418 37.9095 39.6418 37.7296 39.6418H37.5496C37.3697 39.6418 37.01 39.6418 36.8301 39.6418C36.4703 39.6418 36.1105 39.6418 35.9306 39.6418C35.7507 39.6418 35.5708 39.6418 35.3909 39.6418C35.3909 38.0298 35.3909 36.2388 35.3909 34.6269C35.211 33.0149 35.211 31.5821 35.211 30.3284ZM38.2693 28.8955C38.0894 28.8955 37.9095 28.8955 37.7296 28.8955C37.5497 28.8955 37.3698 28.8955 37.3698 28.8955H36.8301C36.2904 28.8955 35.9306 28.8955 35.3909 28.8955C35.0311 28.8955 34.6713 28.8955 34.6713 28.7164C34.4914 28.5373 34.4914 28.3582 34.4914 28C35.9306 28 37.1899 28 38.6291 28H39.5286C39.5286 28.3582 39.5285 28.7164 39.3486 28.7164C38.9888 28.8955 38.4492 28.8955 38.2693 28.8955ZM40.7879 28.1791C42.0472 28 43.3064 28 44.7457 28.1791C44.7457 28.8955 44.7457 29.6119 45.4653 30.1493C45.4653 31.5821 45.4653 33.0149 45.4653 34.4478C45.4653 36.0597 45.4653 38.0299 45.4653 39.8209C44.7457 40.1791 44.7457 40.5373 44.7457 41.2537C44.7457 42.3284 44.7457 43.5821 44.7457 44.6567C44.7457 44.8358 44.7457 45.194 44.7457 45.5522H44.3859C43.3065 45.5522 42.227 45.5522 41.1476 45.5522H40.9678C40.9678 45.194 40.9678 44.8358 40.9678 44.4776C40.9678 43.403 40.9678 42.3284 40.9678 41.2537C40.9678 40.5373 40.7878 40.1791 40.2481 39.8209C40.2481 37.4925 40.0683 35.1642 40.0683 33.0149V30.1493C40.2482 30.1493 40.4281 29.9701 40.608 29.791C40.7879 29.2537 40.7879 28.5373 40.7879 28.1791ZM49.603 28.8955C49.4231 28.8955 49.2432 28.8955 49.0633 28.8955C48.8834 28.8955 48.7035 28.8955 48.7035 28.8955H48.1638C47.6241 28.8955 47.2643 28.8955 46.7246 28.8955C46.1849 28.8955 46.005 28.7164 46.005 28.7164C46.005 28.5373 45.8251 28.3582 45.8251 28H46.3648C46.9045 28 47.2643 28 47.804 28C48.7035 28 49.603 28 50.3226 28H50.8623C50.8623 28.3582 50.8624 28.5373 50.6825 28.7164C50.5026 28.8955 49.7829 28.8955 49.603 28.8955ZM50.3226 39.4627C50.1427 39.4627 49.9629 39.4627 49.783 39.4627C49.6031 39.4627 49.2432 39.4627 49.0633 39.4627H48.8835C48.7036 39.4627 48.3437 39.4627 48.1638 39.4627C47.804 39.4627 47.4442 39.4627 47.2643 39.4627C47.0844 39.4627 46.9045 39.4627 46.7246 39.4627C46.7246 37.8507 46.7246 36.0597 46.7246 34.4478C46.7246 33.194 46.7246 31.7612 46.7246 30.3284C46.9045 30.3284 46.9045 30.3284 47.0844 30.3284C47.6241 30.3284 47.9839 30.3284 48.5236 30.3284C48.8834 30.3284 49.0633 30.3284 49.2432 30.3284H49.603C49.7829 30.3284 49.9628 30.3284 50.3226 30.3284V32.8358C50.1427 34.806 50.1427 37.1343 50.3226 39.4627ZM46.1849 40.8955C46.1849 40.8955 46.3648 40.8955 46.5447 40.8955C46.7246 40.8955 46.7246 40.8955 46.9045 40.8955C47.0844 40.8955 47.0844 40.8955 47.2643 40.8955C47.6241 40.8955 48.1638 40.8955 48.7035 40.8955C48.8834 40.8955 49.0633 40.8955 49.4231 40.8955C49.7829 40.8955 50.1427 40.8955 50.5025 40.8955C50.6824 40.8955 50.8623 40.8955 50.8623 40.8955C51.2221 41.0746 51.0422 41.6119 51.0422 41.9701C51.0422 42.1492 51.0422 42.1493 51.0422 42.3284C51.0422 43.0448 51.0422 43.7612 51.0422 44.6567V45.3731C50.6824 45.3731 50.1428 45.3731 49.783 45.3731C49.4232 45.3731 49.0633 45.3731 48.7035 45.3731C48.3437 45.3731 47.9839 45.3731 47.6241 45.3731C47.0844 45.3731 46.7246 45.3731 46.005 45.3731C46.005 44.4776 46.005 43.5821 46.005 42.6866V42.3284C46.005 42.1493 46.005 42.1492 46.005 41.9701C45.8251 41.2537 45.8251 40.8955 46.1849 40.8955ZM51.7618 26.9254C51.402 26.9254 51.0423 26.9254 50.6825 26.9254C50.3227 26.9254 50.1428 26.9254 49.783 26.9254C48.1639 26.9254 46.5447 26.9254 44.9256 26.9254C43.3065 26.9254 41.5075 26.9254 39.8884 26.9254H39.3486C36.4702 26.9254 33.5919 26.9254 30.8934 26.9254L21.3586 27.1045H21.1787C20.9988 27.1045 20.4591 27.1045 20.4591 26.9254C20.4591 26.9254 20.4592 26.7463 20.9989 26.0299C20.9989 25.8507 21.3587 25.8507 21.5386 25.6716C21.7185 25.6716 21.7185 25.4925 21.8984 25.4925L23.6974 24.4179C25.1366 23.5224 26.3958 22.806 27.6551 22.0896C30.1737 20.6567 32.6924 19.403 35.0311 18.1493C35.211 18.1493 35.3909 17.9701 35.5708 17.791C36.1105 17.4328 36.6502 17.2537 37.01 17.2537H37.1899C37.5497 17.2537 37.9095 17.6119 38.2693 17.791C38.4492 17.9701 38.6291 17.9702 38.809 18.1493C39.3487 18.5075 39.8884 18.6866 40.4281 19.0448C41.1477 19.403 41.6874 19.7612 42.407 20.1194C44.9256 21.5522 47.4442 23.1642 49.603 24.4179C50.5025 24.9552 51.4021 25.4925 52.4815 26.209H52.6613C52.8412 26.3881 53.201 26.5672 53.201 26.5672C53.201 26.5672 53.0211 26.7463 52.8412 26.7463C52.4814 26.9254 52.3015 26.9254 51.7618 26.9254Z" fill="#002B4C"/>
<path d="M37 18L38.2174 20.7273L41 21.0909L39.087 23.0909L39.4348 26L37 24.7273L34.5653 26L35.087 23.0909L33 21.0909L35.7826 20.7273L37 18Z" fill="#DF9505"/>
</svg>
