<svg width="72" height="84" viewBox="0 0 72 84" fill="none" xmlns="http://www.w3.org/2000/svg">
<path d="M36.2987 75.403L36 75.1804L35.7013 75.403L25.5 83.0039V62.5H46.5V83.0039L36.2987 75.403Z" fill="#DF9505" stroke="white"/>
<path d="M55.3874 65.7576H16.6126L8.85099 50.1456L1 35.0056L8.85099 19.8544L16.6126 4.24243H55.3874L63.1602 19.8544L71 35.0056L63.1602 50.1456L55.3874 65.7576Z" fill="#002B4C" stroke="white" stroke-miterlimit="10"/>
<path d="M5.53455 53.9511V15.4842L20.9234 7.78446L35.8463 0L50.7797 7.78446L66.1686 15.4842V53.9511L50.7797 61.6614L35.8463 69.4458L20.9234 61.6614L5.53455 53.9511Z" fill="white"/>
<path d="M6.12756 53.5803V15.8548L21.2199 8.30333L35.8462 0.677734L50.4831 8.30333L65.5754 15.8548V53.5803L50.4831 61.1423L35.8462 68.7679L21.2199 61.1423L6.12756 53.5803Z" fill="#002B4C"/>
<path d="M9.48486 51.2044V17.7149L22.9426 11.019L35.9949 4.24243L49.0574 11.019L62.5152 17.7149V51.2044L49.0574 57.9204L35.9949 64.697L22.9426 57.9204L9.48486 51.2044Z" fill="white"/>
<path d="M10.5454 50.6171V18.3027L23.4648 11.8418L35.9951 5.30298L48.5351 11.8418L61.4545 18.3027V50.6171L48.5351 57.0975L35.9951 63.6363L23.4648 57.0975L10.5454 50.6171Z" fill="#002B4C"/>
<path d="M12.6666 49.4428V19.4785L24.5094 13.4874L35.9955 7.42419L47.4905 13.4874L59.3333 19.4785V49.4428L47.4905 55.4519L35.9955 61.5151L24.5094 55.4519L12.6666 49.4428Z" fill="white"/>
<path d="M32.3393 34.7857C32.6915 35.1352 33.2622 35.1352 33.6144 34.7857L34.2517 34.1531C34.6038 33.8035 34.6038 33.237 34.2517 32.8874L32.239 30.8901L34.2511 28.8923C34.6032 28.5427 34.6032 27.9762 34.2511 27.6266L33.6138 26.994C33.2617 26.6444 32.6909 26.6444 32.3388 26.994L29.0516 30.257C28.6994 30.6066 28.6994 31.1731 29.0516 31.5227L32.3393 34.7857ZM37.749 34.1537L38.3862 34.7862C38.7384 35.1358 39.3092 35.1358 39.6613 34.7862L42.9485 31.5233C43.3006 31.1737 43.3006 30.6071 42.9485 30.2576L39.6613 26.9946C39.3092 26.645 38.7384 26.645 38.3862 26.9946L37.749 27.6271C37.3968 27.9767 37.3968 28.5433 37.749 28.8929L39.761 30.8901L37.749 32.888C37.3968 33.2375 37.3968 33.8041 37.749 34.1537ZM53.1288 43.4185H39.4675C39.4258 44.5265 38.6387 45.2083 37.6228 45.2083H34.197C33.1439 45.2083 32.3365 44.2312 32.3506 43.4185H18.8712C18.3754 43.4185 17.9697 43.8212 17.9697 44.3134V45.2083C17.9697 47.1771 19.5925 48.7879 21.5758 48.7879H50.4243C52.4076 48.7879 54.0303 47.1771 54.0303 45.2083V44.3134C54.0303 43.8212 53.6247 43.4185 53.1288 43.4185ZM50.4243 22.8361C50.4243 21.3596 49.2072 20.1515 47.7197 20.1515H24.2803C22.7928 20.1515 21.5758 21.3596 21.5758 22.8361V41.6288H50.4243V22.8361ZM46.8182 38.0492H25.1818V23.731H46.8182V38.0492Z" fill="#002B4C"/>
</svg>
