<svg width="104" height="70" viewBox="0 0 104 70" fill="none" xmlns="http://www.w3.org/2000/svg">
<path d="M10.7945 35.745L11.0906 35.414L10.797 35.0809L1.10724 24.088H102.405L92.715 35.0809L92.4213 35.414L92.7175 35.745L102.394 46.5587H1.11835L10.7945 35.745Z" fill="#DF9505" stroke="#FFFBFB"/>
<path d="M86.5 34.9662C86.5 54.0555 71.1089 69.4324 52 69.4324C32.8911 69.4324 17.5 54.0555 17.5 34.9662C17.5 15.8769 32.8911 0.5 52 0.5C71.1089 0.5 86.5 15.8769 86.5 34.9662Z" fill="#002B4C" stroke="white"/>
<path d="M52 63C36.5823 63 24 50.4177 24 35C24 19.5823 36.5823 7 52 7C67.4177 7 80 19.5823 80 35C80 50.4177 67.4177 63 52 63Z" fill="white"/>
<path d="M52 61C37.6852 61 26 49.3148 26 35C26 20.6852 37.6852 9 52 9C66.3148 9 78 20.6852 78 35C78 49.3148 66.3148 61 52 61Z" stroke="#002B4C" stroke-width="2"/>
<path d="M38.15 33C40.4114 33 42.25 31.2062 42.25 29C42.25 26.7938 40.4114 25 38.15 25C35.8886 25 34.05 26.7938 34.05 29C34.05 31.2062 35.8886 33 38.15 33ZM66.85 33C69.1114 33 70.95 31.2062 70.95 29C70.95 26.7938 69.1114 25 66.85 25C64.5886 25 62.75 26.7938 62.75 29C62.75 31.2062 64.5886 33 66.85 33ZM68.9 35H64.8C63.6725 35 62.6539 35.4438 61.9108 36.1625C64.4925 37.5438 66.3247 40.0375 66.7219 43H70.95C72.0839 43 73 42.1063 73 41V39C73 36.7938 71.1614 35 68.9 35ZM52.5 35C56.4655 35 59.675 31.8688 59.675 28C59.675 24.1312 56.4655 21 52.5 21C48.5345 21 45.325 24.1312 45.325 28C45.325 31.8688 48.5345 35 52.5 35ZM57.42 37H56.8883C55.5558 37.625 54.0759 38 52.5 38C50.9241 38 49.4506 37.625 48.1117 37H47.58C43.5056 37 40.2 40.225 40.2 44.2V46C40.2 47.6562 41.5773 49 43.275 49H61.725C63.4227 49 64.8 47.6562 64.8 46V44.2C64.8 40.225 61.4944 37 57.42 37ZM43.0892 36.1625C42.3461 35.4438 41.3275 35 40.2 35H36.1C33.8386 35 32 36.7938 32 39V41C32 42.1063 32.9161 43 34.05 43H38.2717C38.6753 40.0375 40.5075 37.5438 43.0892 36.1625Z" fill="#002B4C"/>
</svg>
