<?xml version="1.0" encoding="utf-8"?>
<!-- Svg Vector Icons : http://www.onlinewebfonts.com/icon -->
<!DOCTYPE svg PUBLIC "-//W3C//DTD SVG 1.1//EN" "http://www.w3.org/Graphics/SVG/1.1/DTD/svg11.dtd">
<svg version="1.1" xmlns="http://www.w3.org/2000/svg" xmlns:xlink="http://www.w3.org/1999/xlink" x="0px" y="0px" viewBox="0 0 1000 1000" enable-background="new 0 0 1000 1000" xml:space="preserve">
<metadata> Svg Vector Icons : http://www.onlinewebfonts.com/icon </metadata>
<g><path d="M500,10C229.8,10,10,229.8,10,500c0,270.2,219.8,490,490,490c270.3,0,490-219.8,490-490C989.9,229.8,770.2,10,500,10z M500,967.2C242.4,967.2,32.9,757.6,32.9,500C32.9,242.4,242.4,32.8,500,32.8c257.7,0,467.2,209.6,467.2,467.2S757.6,967.2,500,967.2z"/><path d="M838.5,441.8c-9-15.6-21.6-28.1-37.3-36.9c-30.9-17.3-70.5-18.1-102.1,0.1c-15.6,9-28.1,21.5-36.9,37.2c-9,15.6-13.6,33-13.6,51.5c0,18,4.7,35.1,13.6,50.6c9.1,15.6,21.6,28,37.3,36.7c15.8,8.9,32.9,13.4,51.3,13.4c18.1,0,35.3-4.5,50.8-13.6c15.8-8.9,28.1-21.3,37-37c9-15.6,13.5-32.7,13.5-50.8C852.1,474.7,847.6,457.4,838.5,441.8z M819.7,493c0,20.5-6.6,37-20.2,50.3c-13.5,13.3-29.7,19.9-49.5,19.9c-19.1,0-35-6.6-48.7-20.4c-13.7-13.7-20.4-29.7-20.4-49.2c0-20.2,6.5-36.8,19.8-50.6c13.2-13.7,29.4-20.4,49.2-20.4c19.4,0,35.4,6.7,49.3,20.4C813,456.8,819.7,473.1,819.7,493z"/><path d="M495.4,391.7c-8.9,0-16.2,7.4-16.2,16.5v63.5h-77v-63.5c0-9.1-7.2-16.5-16.1-16.5c-8.9,0-16.2,7.4-16.2,16.5V430v124.2v19.1c0,9.1,7.3,16.6,16.2,16.6c8.9,0,16.1-7.4,16.1-16.6v-70.6h77v70.6c0,9.1,7.3,16.6,16.2,16.6c8.9,0,16.1-7.4,16.1-16.6v-19.1V430v-21.9C511.5,399.1,504.2,391.7,495.4,391.7z"/><path d="M345,539.4c0-8.8-7.2-15.9-15.9-15.9c-8.5,0-12.4,7.4-17.4,12.9c-15.7,18.4-34.8,27.3-58.3,27.3c-21.2,0-38.2-6.6-52.2-20.1c-13.9-13.4-20.6-29.8-20.6-50.2c0-19.8,6.9-36.2,21.1-50.1c14.3-14,30.9-20.7,50.6-20.7c24.3,0,43.7,9.4,59.3,28.6l4.2,5.1c2.8,3.6,7.1,6,12,6c8.5,0,15.5-6.9,15.5-15.3c0-3.6-1.3-6.6-3.1-9.6l-3.9-5.2c-9.3-13.1-21.5-23.3-36.2-30.3c-14.7-6.9-30.8-10.4-48.1-10.4c-19.1,0-37,4.4-52.8,13.1c-15.9,8.8-28.7,21-37.7,36.5c-9,15.4-13.6,32.4-13.6,50.6c0,29.4,9.9,54,29.3,73.3c19.4,19.3,44.6,29.1,75,29.1c17.3,0,33.4-3.4,47.8-9.8c14.5-6.6,26.7-16.3,36.2-28.8C340,550.6,345,546.4,345,539.4z"/><path d="M629.1,621.1v-0.3h-48.5l22.3-24.2c8-8.6,14-16.3,18-22.7c4.3-6.9,6.5-14.5,6.5-22.6c0-11-3.9-20.3-11.8-28.1c-7.7-7.5-17.4-11.3-28.9-11.3c-11.8,0-21.8,4-30.2,12.1c-8.1,8-12.6,18.7-13.2,31.8l-0.2,4.6h0.2c0,0.2-0.1,0.4-0.1,0.5c0,5.5,4.4,9.9,10.1,9.9c5.5,0,9.9-4.4,9.9-9.9c0-0.2-0.1-0.5-0.1-0.7l0.3-3.8c0.7-8,3-14.2,7.1-18.5c4-4,9.2-6.1,15.6-6.1c5.9,0,10.9,2,15,6c4,3.9,6.1,8.5,6.1,13.8c0,5.2-1.3,9.8-4.1,14c-3.4,4.7-8.9,11.3-16.6,19.5l-33.6,36.5c-1.1,0.7-1.9,1.7-2.6,2.7l-0.7,0.8l0.1,0.1c-0.7,1.4-1.3,3.1-1.3,4.7c0,5.9,3.1,11,10.5,10.7l0.1,0.2h70v-0.2c5-0.6,9-4.7,9-9.8S634.1,621.6,629.1,621.1z"/></g>
</svg>