<svg width="104" height="70" viewBox="0 0 104 70" fill="none" xmlns="http://www.w3.org/2000/svg">
<path d="M10.7945 35.745L11.0906 35.414L10.797 35.0809L1.10724 24.088H102.405L92.715 35.0809L92.4213 35.414L92.7175 35.745L102.394 46.5587H1.11835L10.7945 35.745Z" fill="#DF9505" stroke="#FFFBFB"/>
<path d="M86.5 34.9662C86.5 54.0555 71.1089 69.4324 52 69.4324C32.8911 69.4324 17.5 54.0555 17.5 34.9662C17.5 15.8769 32.8911 0.5 52 0.5C71.1089 0.5 86.5 15.8769 86.5 34.9662Z" fill="#002B4C" stroke="white"/>
<path d="M52 63C36.5823 63 24 50.4177 24 35C24 19.5823 36.5823 7 52 7C67.4177 7 80 19.5823 80 35C80 50.4177 67.4177 63 52 63Z" fill="white"/>
<path d="M52 61C37.6852 61 26 49.3148 26 35C26 20.6852 37.6852 9 52 9C66.3148 9 78 20.6852 78 35C78 49.3148 66.3148 61 52 61Z" stroke="#002B4C" stroke-width="2"/>
<path fill-rule="evenodd" clip-rule="evenodd" d="M53.0573 16V25.0564C53.0573 25.9354 53.7833 26.6546 54.6706 26.6546H63.8125V38.1082L51.6615 50.0947H39.6133C38.7193 50.0947 38 49.3822 38 48.4965V17.5982C38 16.7125 38.7193 16 39.6133 16H53.0573ZM56.5527 41.5711C56.9964 41.5711 57.3594 41.2115 57.3594 40.772V40.2392C57.3594 39.7997 56.9964 39.4401 56.5527 39.4401H45.2598C44.8161 39.4401 44.4531 39.7997 44.4531 40.2392V40.772C44.4531 41.2115 44.8161 41.5711 45.2598 41.5711H56.5527ZM56.5527 37.3092C56.9964 37.3092 57.3594 36.9496 57.3594 36.5101V35.9774C57.3594 35.5379 56.9964 35.1783 56.5527 35.1783H45.2598C44.8161 35.1783 44.4531 35.5379 44.4531 35.9774V36.5101C44.4531 36.9496 44.8161 37.3092 45.2598 37.3092H56.5527ZM57.3594 32.2483V31.7155C57.3594 31.276 56.9964 30.9164 56.5527 30.9164H45.2598C44.8161 30.9164 44.4531 31.276 44.4531 31.7155V32.2483C44.4531 32.6878 44.8161 33.0474 45.2598 33.0474H56.5527C56.9964 33.0474 57.3594 32.6878 57.3594 32.2483Z" fill="#002B4C"/>
<path d="M63.8125 24.5237V24.1175C63.8125 23.698 63.6444 23.2917 63.3419 22.9921L56.7611 16.4661C56.4586 16.1665 56.0486 16 55.6184 16H55.2084V24.5237H63.8125Z" fill="#002B4C"/>
<path d="M72.4217 42.0308L70.5307 43.8961C70.338 44.0863 70.0262 44.0863 69.8334 43.8961L65.2805 39.4049C65.0877 39.2147 65.0877 38.9072 65.2805 38.717L67.1714 36.8517C67.9384 36.095 69.1854 36.095 69.9565 36.8517L72.4217 39.2835C73.1928 40.0401 73.1928 41.2702 72.4217 42.0308ZM63.6562 40.3193L52.885 50.9446L52.0154 55.8608C51.8965 56.5244 52.483 57.0989 53.1557 56.9856L58.1394 56.1238L68.9106 45.4984C69.1033 45.3083 69.1033 45.0008 68.9106 44.8106L64.3576 40.3193C64.1607 40.1291 63.849 40.1291 63.6562 40.3193ZM57.0893 50.0343C56.8637 49.8117 56.8637 49.4556 57.0893 49.2331L63.406 43.0019C63.6316 42.7794 63.9926 42.7794 64.2181 43.0019C64.4437 43.2245 64.4437 43.5805 64.2181 43.8031L57.9015 50.0343C57.6759 50.2568 57.3149 50.2568 57.0893 50.0343ZM55.6086 53.4371H57.5774V54.9059L54.9318 55.3631L53.6561 54.1047L54.1196 51.4949H55.6086V53.4371Z" fill="#002B4C"/>
</svg>
