<svg width="104" height="70" viewBox="0 0 104 70" fill="none" xmlns="http://www.w3.org/2000/svg">
<path d="M10.7945 35.7448L11.0906 35.4139L10.797 35.0808L1.10724 24.0879H102.405L92.715 35.0808L92.4213 35.4139L92.7175 35.7448L102.394 46.5585H1.11835L10.7945 35.7448Z" fill="#DF9505" stroke="#FFFBFB"/>
<path d="M86.5 34.9662C86.5 54.0555 71.1089 69.4324 52 69.4324C32.8911 69.4324 17.5 54.0555 17.5 34.9662C17.5 15.8769 32.8911 0.5 52 0.5C71.1089 0.5 86.5 15.8769 86.5 34.9662Z" fill="#002B4C" stroke="white"/>
<path d="M52 63C36.5823 63 24 50.4177 24 35C24 19.5823 36.5823 7 52 7C67.4177 7 80 19.5823 80 35C80 50.4177 67.4177 63 52 63Z" fill="white"/>
<path d="M52 61C37.6852 61 26 49.3148 26 35C26 20.6852 37.6852 9 52 9C66.3148 9 78 20.6852 78 35C78 49.3148 66.3148 61 52 61Z" stroke="#002B4C" stroke-width="2"/>
<path d="M69 50.122V51H41V50.122H43.4976C43.892 50.122 44.1549 49.8293 44.1549 49.3903V47.9268H45.6009C45.9953 47.9268 46.2582 47.6342 46.2582 47.1951V45H64.0047V47.1951C64.0047 47.4878 64.2676 47.9268 64.662 47.9268H66.108V49.5366C66.108 49.9756 66.3709 50.2683 66.7652 50.2683H69V50.122Z" fill="#002B4C"/>
<path d="M53.6396 31.0261L52.3411 32.4855L36.5969 48.7008L34 45.9442L50.718 30.7018L52.1788 29.4045L53.6396 31.0261Z" fill="#002B4C"/>
<path d="M68.5718 30.5402L61.1055 37.837C60.4563 38.4856 59.4824 38.3234 58.9955 37.837C58.3462 37.1884 58.5085 36.2155 58.9955 35.729L66.4617 28.4322C66.4617 28.4322 66.4617 28.4322 66.624 28.2701C66.7863 28.1079 67.111 27.9458 67.2733 27.9458C67.7602 27.9458 68.2471 28.1079 68.5718 28.4322C69.221 28.9187 69.0587 29.8916 68.5718 30.5402Z" fill="#002B4C"/>
<path d="M65.1637 27.6211L58.509 33.9451L49.0951 24.2159L54.0579 19.6135L55.5875 17.8918L65.1637 27.6211Z" fill="#002B4C"/>
<path d="M55.1002 16.4323C55.1002 16.4323 54.9379 16.4323 55.1002 16.4323L47.634 23.7292L47.4717 23.8913C46.8224 24.54 45.8486 24.3778 45.3617 23.8913C44.7124 23.2427 44.8748 22.2698 45.3617 21.7833L52.8278 14.4864C52.9902 14.3243 53.3148 14.1622 53.6394 14H53.8018C54.1264 14 54.6133 14.1621 54.9379 14.4864C55.4249 14.9729 55.5871 15.7837 55.1002 16.4323Z" fill="#002B4C"/>
</svg>
