<svg width="64" height="78" viewBox="0 0 64 78" fill="none" xmlns="http://www.w3.org/2000/svg">
<path d="M32.328 68.446L32.0293 68.2234L31.7306 68.446L21.5293 76.0469V55.543H42.5293V76.0469L32.328 68.446Z" fill="#DF9505" stroke="white"/>
<path d="M16.7129 57.231L13.6331 54.1406C8.5779 48.9477 5.22209 42.3398 4.01136 35.1945L0.135062 13.4447C-0.162282 12.0236 0.0346317 10.5435 0.693205 9.24951C1.35178 7.95554 2.43251 6.92529 3.75648 6.32931L9.20454 4.20531C23.8077 -1.40177 39.97 -1.40177 54.5732 4.20531L60.0212 6.32931C61.3452 6.92529 62.4259 7.95554 63.0845 9.24951C63.7431 10.5435 63.94 12.0236 63.6427 13.4447L59.7664 35.1945C58.552 42.3408 55.1925 48.9486 50.134 54.1406L47.0648 57.231C45.1118 59.2936 42.7587 60.9364 40.1494 62.0591C37.5402 63.1818 34.7294 63.7608 31.8889 63.7608C29.0483 63.7608 26.2376 63.1818 23.6283 62.0591C21.019 60.9364 18.666 59.2936 16.7129 57.231Z" fill="white"/>
<path d="M17.2124 56.4457L14.207 53.4403C9.30407 48.4143 6.05116 42.0123 4.88259 35.0889L1.12311 14.0188C0.828381 12.6423 1.01574 11.2063 1.65379 9.95149C2.29183 8.69666 3.34179 7.69927 4.62771 7.12646L9.93771 5.10866C24.0854 -0.328376 39.7462 -0.328376 53.8939 5.10866L59.2039 7.12646C60.4885 7.70086 61.5373 8.6985 62.1751 9.95287C62.8129 11.2072 63.0012 12.6424 62.7085 14.0188L58.8959 35.0995C57.7253 42.0191 54.4725 48.4172 49.5716 53.4403L46.5979 56.4351C44.7056 58.4291 42.4274 60.0171 39.9019 61.1027C37.3764 62.1882 34.6564 62.7485 31.9075 62.7495C29.1585 62.7505 26.4381 62.1922 23.9118 61.1085C21.3855 60.0247 19.1062 58.4383 17.2124 56.4457Z" fill="#023047"/>
<path d="M18.9117 53.5677L16.278 50.9233C11.9495 46.4845 9.07824 40.8308 8.04748 34.7172L4.73404 16.111C4.47697 14.8962 4.64337 13.6301 5.20559 12.5231C5.76781 11.416 6.69197 10.5347 7.82446 10.0257L12.4866 8.25217C24.9765 3.45224 38.8022 3.45224 51.2921 8.25217L55.9543 10.0257C57.0868 10.5347 58.0109 11.416 58.5732 12.5231C59.1354 13.6301 59.3018 14.8962 59.0447 16.111L55.7313 34.7172C54.6915 40.8278 51.8215 46.479 47.5008 50.9233L44.8245 53.5677C43.1548 55.3248 41.1452 56.7238 38.9179 57.6799C36.6905 58.6359 34.292 59.1289 31.8681 59.1289C29.4443 59.1289 27.0458 58.6359 24.8184 57.6799C22.5911 56.7238 20.5814 55.3248 18.9117 53.5677V53.5677Z" fill="white"/>
<path d="M19.6575 52.7346L17.1467 50.2105C13.0203 45.9734 10.283 40.5768 9.30039 34.7411L6.14162 16.9808C5.89655 15.8213 6.05519 14.6127 6.59116 13.556C7.12713 12.4993 8.00816 11.6581 9.08778 11.1722L13.5323 9.47926C25.4391 4.89754 38.6195 4.89754 50.5263 9.47926L54.9708 11.1722C56.0504 11.6581 56.9315 12.4993 57.4674 13.556C58.0034 14.6127 58.162 15.8213 57.917 16.9808L54.7582 34.7411C53.7669 40.5739 51.0309 45.9681 46.9119 50.2105L44.3606 52.7346C42.7689 54.4118 40.8531 55.7473 38.7297 56.6598C36.6063 57.5724 34.3198 58.043 32.009 58.043C29.6983 58.043 27.4118 57.5724 25.2884 56.6598C23.165 55.7473 21.2492 54.4118 19.6575 52.7346V52.7346Z" fill="#023047"/>
<path d="M20.6092 51.143L18.2915 48.813C14.4825 44.9018 11.9558 39.9203 11.0488 34.5336L8.13298 18.1394C7.90676 17.0691 8.0532 15.9535 8.54794 14.9781C9.04268 14.0026 9.85594 13.2261 10.8525 12.7776L14.9552 11.2149C25.9461 6.98565 38.1125 6.98565 49.1034 11.2149L53.2061 12.7776C54.2027 13.2261 55.0159 14.0026 55.5107 14.9781C56.0054 15.9535 56.1518 17.0691 55.9256 18.1394L53.0098 34.5336C52.0948 39.9177 49.5693 44.897 45.7671 48.813L43.4121 51.143C41.9427 52.6911 40.1743 53.9238 38.2143 54.7662C36.2542 55.6086 34.1436 56.043 32.0106 56.043C29.8776 56.043 27.767 55.6086 25.8069 54.7662C23.8469 53.9238 22.0785 52.6911 20.6092 51.143V51.143Z" fill="white"/>
<path d="M20.0293 52.043V42.1167H23.0293V37.043" stroke="#023047" stroke-width="0.8" stroke-miterlimit="10"/>
<path d="M30.0293 57.043V53.4444H28.0293V49.043" stroke="#023047" stroke-width="0.8" stroke-miterlimit="10"/>
<path d="M35.0293 56.043V47.3367H37.0293V40.043" stroke="#023047" stroke-width="0.8" stroke-miterlimit="10"/>
<path d="M44.0293 52.043V48.0826L43.0293 48.043V44.043" stroke="#023047" stroke-width="0.8" stroke-miterlimit="10"/>
<path d="M23.319 37.4785C24.099 37.4785 24.7314 36.8461 24.7314 36.066C24.7314 35.2859 24.099 34.6536 23.319 34.6536C22.5389 34.6536 21.9065 35.2859 21.9065 36.066C21.9065 36.8461 22.5389 37.4785 23.319 37.4785Z" stroke="#023047" stroke-width="0.75" stroke-miterlimit="10"/>
<path d="M28.2254 48.6082C29.0055 48.6082 29.6379 47.9759 29.6379 47.1958C29.6379 46.4157 29.0055 45.7833 28.2254 45.7833C27.4454 45.7833 26.813 46.4157 26.813 47.1958C26.813 47.9759 27.4454 48.6082 28.2254 48.6082Z" stroke="#023047" stroke-width="0.75" stroke-miterlimit="10"/>
<path d="M37.0188 39.6025C37.7989 39.6025 38.4312 38.9701 38.4312 38.19C38.4312 37.41 37.7989 36.7776 37.0188 36.7776C36.2387 36.7776 35.6063 37.41 35.6063 38.19C35.6063 38.9701 36.2387 39.6025 37.0188 39.6025Z" stroke="#023047" stroke-width="0.75" stroke-miterlimit="10"/>
<path d="M43.1465 44.2009C43.9266 44.2009 44.5589 43.5685 44.5589 42.7884C44.5589 42.0084 43.9266 41.376 43.1465 41.376C42.3664 41.376 41.734 42.0084 41.734 42.7884C41.734 43.5685 42.3664 44.2009 43.1465 44.2009Z" stroke="#023047" stroke-width="0.75" stroke-miterlimit="10"/>
<path d="M38.4812 13.043H33.6493C33.1993 13.043 32.7662 13.207 32.4343 13.5022L26.9049 18.4223C26.8993 18.4277 26.8937 18.4387 26.888 18.4441C25.9543 19.297 25.9712 20.6582 26.7699 21.5055C27.4843 22.2654 28.9862 22.4677 29.9255 21.6531C29.9312 21.6477 29.9424 21.6477 29.948 21.6422L34.4424 17.6405C34.808 17.318 35.3818 17.3398 35.7137 17.6952C36.0512 18.0505 36.023 18.6027 35.6574 18.9307L34.1893 20.2372L42.3793 26.699C42.5424 26.8302 42.6887 26.9723 42.8237 27.1199V16.5417L39.7524 13.5568C39.4205 13.2288 38.9593 13.043 38.4812 13.043ZM44.6293 16.5526V28.7927C44.6293 29.7603 45.4337 30.5421 46.4293 30.5421H50.0293V16.5526H44.6293ZM47.3293 28.7927C46.8343 28.7927 46.4293 28.3991 46.4293 27.918C46.4293 27.437 46.8343 27.0434 47.3293 27.0434C47.8243 27.0434 48.2293 27.437 48.2293 27.918C48.2293 28.3991 47.8243 28.7927 47.3293 28.7927ZM14.0293 30.5366H17.6293C18.6249 30.5366 19.4293 29.7549 19.4293 28.7873V16.5526H14.0293V30.5366ZM16.7293 27.0434C17.2243 27.0434 17.6293 27.437 17.6293 27.918C17.6293 28.3991 17.2243 28.7927 16.7293 28.7927C16.2343 28.7927 15.8293 28.3991 15.8293 27.918C15.8293 27.4315 16.2343 27.0434 16.7293 27.0434ZM41.2487 28.0602L32.8505 21.4345L31.163 22.9378C29.4924 24.4193 26.933 24.2772 25.4424 22.6973C23.9293 21.0901 24.0474 18.6027 25.6899 17.1376L30.2912 13.043H25.5774C25.0993 13.043 24.6437 13.2288 24.3062 13.5568L21.2293 16.5417V28.7818H22.2587L27.3493 33.2591C28.8905 34.4782 31.1574 34.2486 32.4118 32.7507L32.423 32.7397L33.4299 33.5871C34.3243 34.2978 35.6462 34.1611 36.3718 33.2919L38.138 31.1817L38.4418 31.4222C39.2124 32.0291 40.3487 31.9197 40.973 31.1653L41.5074 30.5257C42.1374 29.7713 42.0193 28.6725 41.2487 28.0602Z" fill="#023047"/>
</svg>
