<svg width="74" height="89" viewBox="0 0 74 89" fill="none" xmlns="http://www.w3.org/2000/svg">
<mask id="path-1-inside-1" fill="white">
<path fill-rule="evenodd" clip-rule="evenodd" d="M37 63.7891L19.907 54.5552L8.02332 76.5106L23.4884 74.2338L30 88.3828L37 75.4502L43.9999 88.3828L50.5115 74.2338L65.9765 76.5106L54.0929 54.5552L37 63.7891Z"/>
</mask>
<path fill-rule="evenodd" clip-rule="evenodd" d="M37 63.7891L19.907 54.5552L8.02332 76.5106L23.4884 74.2338L30 88.3828L37 75.4502L43.9999 88.3828L50.5115 74.2338L65.9765 76.5106L54.0929 54.5552L37 63.7891Z" fill="#DF9505"/>
<path d="M19.907 54.5552L20.3823 53.6754L19.5032 53.2004L19.0276 54.0792L19.907 54.5552ZM37 63.7891L36.5247 64.6689L37 64.9257L37.4753 64.6689L37 63.7891ZM8.02332 76.5106L7.14388 76.0346L6.1933 77.7908L8.16897 77.5L8.02332 76.5106ZM23.4884 74.2338L24.3968 73.8157L24.0837 73.1354L23.3428 73.2444L23.4884 74.2338ZM30 88.3828L29.0916 88.8009L29.9276 90.6174L30.8795 88.8588L30 88.3828ZM37 75.4502L37.8794 74.9742L37 73.3494L36.1205 74.9742L37 75.4502ZM43.9999 88.3828L43.1204 88.8588L44.0723 90.6174L44.9083 88.8009L43.9999 88.3828ZM50.5115 74.2338L50.6571 73.2444L49.9162 73.1353L49.6031 73.8157L50.5115 74.2338ZM65.9765 76.5106L65.8309 77.5L67.8065 77.7908L66.856 76.0346L65.9765 76.5106ZM54.0929 54.5552L54.9723 54.0792L54.4967 53.2004L53.6176 53.6754L54.0929 54.5552ZM19.4317 55.435L36.5247 64.6689L37.4753 62.9093L20.3823 53.6754L19.4317 55.435ZM8.90276 76.9866L20.7864 55.0312L19.0276 54.0792L7.14388 76.0346L8.90276 76.9866ZM23.3428 73.2444L7.87766 75.5213L8.16897 77.5L23.6341 75.2231L23.3428 73.2444ZM30.9084 87.9648L24.3968 73.8157L22.58 74.6518L29.0916 88.8009L30.9084 87.9648ZM36.1205 74.9742L29.1206 87.9068L30.8795 88.8588L37.8794 75.9263L36.1205 74.9742ZM36.1205 75.9263L43.1204 88.8588L44.8793 87.9068L37.8794 74.9742L36.1205 75.9263ZM44.9083 88.8009L51.4199 74.6518L49.6031 73.8157L43.0915 87.9648L44.9083 88.8009ZM50.3658 75.2231L65.8309 77.5L66.1222 75.5213L50.6571 73.2444L50.3658 75.2231ZM66.856 76.0346L54.9723 54.0792L53.2134 55.0312L65.0971 76.9866L66.856 76.0346ZM53.6176 53.6754L36.5247 62.9093L37.4753 64.6689L54.5682 55.435L53.6176 53.6754Z" fill="white" mask="url(#path-1-inside-1)"/>
<path d="M72.393 36.6246L72.6361 36.3155L72.393 36.0064L67.169 29.3641L69.0686 21.1406L69.1588 20.7501L68.7973 20.577L61.2005 16.9404L59.3012 8.71804L59.2117 8.33057H58.814H50.429L45.2069 1.6909L44.9593 1.37606L44.598 1.54901L37 5.18621L29.402 1.54901L29.0407 1.37606L28.793 1.6909L23.5711 8.33057H15.1861H14.7884L14.6989 8.71804L12.7996 16.9404L5.20277 20.577L4.8413 20.7501L4.93149 21.1406L6.831 29.3641L1.60699 36.0064L1.36389 36.3155L1.60699 36.6246L6.831 43.2669L4.93149 51.4904L4.8413 51.8809L5.20277 52.054L12.7996 55.6906L14.6989 63.913L14.7884 64.3004H15.1861H23.5711L28.793 70.9401L29.0407 71.2549L29.402 71.082L37 67.4448L44.598 71.082L44.9593 71.2549L45.2069 70.9401L50.429 64.3004H58.814H59.2117L59.3012 63.913L61.2005 55.6906L68.7973 52.054L69.1588 51.8809L69.0686 51.4904L67.169 43.2669L72.393 36.6246ZM37 57.6083C25.2292 57.6083 15.6861 48.0737 15.6861 36.3155C15.6861 24.5573 25.2292 15.0227 37 15.0227C48.7708 15.0227 58.314 24.5573 58.314 36.3155C58.314 48.0737 48.7708 57.6083 37 57.6083Z" fill="#002B4C" stroke="white"/>
<path d="M37 64C21.5823 64 9 51.4177 9 36C9 20.5823 21.5823 8 37 8C52.4177 8 65 20.5823 65 36C65 51.4177 52.4177 64 37 64Z" fill="white"/>
<path d="M37 62C22.6852 62 11 50.3148 11 36C11 21.6852 22.6852 10 37 10C51.3148 10 63 21.6852 63 36C63 50.3148 51.3148 62 37 62Z" stroke="#002B4C" stroke-width="2"/>
<path d="M53.9206 28C54.2804 28 54.6402 27.8209 54.8201 27.2836C54.8201 27.1045 55 26.9254 55 26.7463C55 26.5672 55 26.5672 55 26.3881C54.8201 25.6716 53.7407 25.1343 52.8412 24.7761C52.6613 24.597 52.3015 24.597 52.1216 24.4179C50.8623 23.7015 49.4231 22.6269 47.804 21.7313C45.6452 20.4776 43.4864 19.2239 41.3276 18.1492C40.608 17.791 39.8884 17.2537 39.1688 16.8955L38.809 16.7164C38.2693 16.3582 37.5497 16 36.8301 16C36.6502 16 36.4703 16 36.2904 16C35.0311 16.3582 33.7717 17.0746 32.5124 17.6119C32.1526 17.791 31.6129 18.1493 31.2531 18.3284C28.0149 19.9403 24.5968 21.9104 20.8189 24.2388L20.6391 24.4179C19.9195 24.7761 18.84 25.4925 19.0199 26.5672C19.1998 27.8209 20.8189 28 21.3586 28H21.7184C21.7184 28.7164 21.7185 29.4328 22.4381 29.791C22.4381 31.2239 22.4381 32.6567 22.4381 34.0896C22.4381 35.7015 22.4381 37.6716 22.4381 39.4627C21.7185 39.8209 21.7184 40.1791 21.7184 40.8955C21.7184 41.9702 21.7184 43.2239 21.7184 44.2985V44.4776C21.7184 44.6567 21.7184 45.0149 21.7184 45.194C20.4591 45.5522 20.4591 46.6269 20.4591 47.7015C20.2792 47.7015 20.2793 47.7015 20.0994 47.8806C19.7396 48.0597 19.3797 48.4179 19.3797 48.7761C19.1998 49.4925 19.1998 50.5672 19.5596 51.1045C19.9194 51.6418 20.639 51.8209 21.3586 51.8209H21.5386C21.8984 51.8209 22.2582 51.8209 22.7979 51.8209C23.3376 51.8209 24.0572 51.8209 24.5969 51.8209C25.1366 51.8209 25.6763 51.8209 26.0361 51.8209C27.1155 51.8209 28.015 51.8209 29.0944 51.8209H29.2743C30.5336 51.8209 31.7928 51.8209 33.0521 51.8209C34.4913 51.8209 35.7507 51.8209 37.01 52C38.4492 52 40.0683 52 41.5075 52C43.3065 52 45.1055 52 47.0844 52C49.0634 52 50.8624 52 52.4815 52C53.381 52 54.1005 51.6418 54.4603 51.1045C54.8201 50.5672 54.8201 49.8508 54.6402 48.9552C54.4603 48.4179 54.1005 48.0597 53.5608 47.8806V47.7015C53.5608 46.9851 53.5608 46.0896 52.8412 45.5522C52.6613 45.5522 52.4815 45.3731 52.4815 45.3731C52.4815 45.0149 52.4815 44.6567 52.4815 44.2985C52.4815 43.2239 52.4815 42.1493 52.4815 41.0746C52.4815 40.3582 52.3015 40 51.7618 39.6418C51.7618 37.3134 51.582 34.9851 51.582 32.6567V29.791C51.7619 29.791 51.9417 29.6119 52.1216 29.4328C52.4814 29.0746 52.4815 28.5373 52.4815 28C52.6614 28 52.8412 28 53.0211 28C53.201 28.1791 53.5608 28 53.9206 28ZM52.4815 48.9552C52.8413 48.9552 53.2011 48.9552 53.381 49.1343C53.5609 49.3134 53.5608 49.4925 53.5608 49.6717C53.5608 50.209 53.2011 50.3881 52.4815 50.3881C50.8624 50.3881 49.0633 50.5672 46.9045 50.5672C45.2854 50.5672 43.6663 50.5672 42.0471 50.5672C40.6079 50.5672 38.9889 50.5672 37.3698 50.5672C36.4703 50.5672 35.5708 50.5672 34.6713 50.5672C33.7718 50.5672 32.6924 50.5672 31.7929 50.5672C30.5336 50.5672 29.2743 50.5672 27.8351 50.5672C26.216 50.5672 24.5968 50.5672 23.1576 50.5672C22.9777 50.5672 22.7978 50.5672 22.6179 50.5672C22.438 50.5672 22.2581 50.5672 22.0782 50.5672C21.3586 50.5672 20.9989 50.3881 20.9989 49.6717C20.9989 49.4925 20.9989 49.1343 20.9989 49.1343C20.9989 49.1343 21.3587 48.9552 21.5386 48.9552C22.0783 48.7761 22.618 48.7761 23.3376 48.7761H23.6974C24.5969 48.7761 25.4963 48.7761 26.2159 48.7761C26.9355 48.7761 27.6552 48.7761 28.3748 48.7761C29.9939 48.7761 31.6129 48.7761 33.4119 48.7761C35.0311 48.7761 36.6502 48.7761 38.2693 48.7761C41.3276 48.7761 44.5658 48.7761 48.3437 48.7761C48.3437 48.7761 51.402 48.7761 51.9417 48.7761L52.4815 48.9552ZM51.7618 46.4478C52.1216 46.6269 52.3015 46.9851 52.3015 47.5224C51.9417 47.5224 51.402 47.5224 51.0422 47.5224C50.6824 47.5224 50.5025 47.5224 50.1427 47.5224H49.9628C49.0633 47.5224 47.9839 47.5224 46.7246 47.5224C45.4653 47.5224 44.206 47.5224 42.9467 47.5224C41.8672 47.5224 40.7879 47.5224 39.7085 47.5224H39.1688C37.7296 47.5224 36.1105 47.5224 34.6713 47.5224C33.2321 47.5224 31.613 47.5224 30.1738 47.5224H29.2743C28.5547 47.5224 28.015 47.5224 27.2954 47.5224C26.3959 47.5224 25.4963 47.5224 24.7767 47.5224C24.5968 47.5224 24.4169 47.5224 24.0571 47.5224C23.5174 47.5224 22.618 47.5224 21.8984 47.5224C21.8984 46.806 22.0783 46.6269 22.7979 46.4478C22.9778 46.4478 23.3375 46.4478 23.8772 46.4478C24.0571 46.4478 24.237 46.4478 24.4169 46.4478C24.7767 46.4478 24.9567 46.4478 25.1366 46.4478C25.6763 46.4478 26.216 46.4478 26.9356 46.4478C28.015 46.4478 29.0944 46.4478 29.9939 46.4478H31.7929C34.6713 46.4478 37.5497 46.6269 40.4281 46.6269H40.7879C41.8673 46.6269 42.9467 46.6269 44.206 46.6269C45.1055 46.6269 46.005 46.6269 47.0844 46.6269H47.2643C47.6241 46.6269 47.9839 46.6269 48.3437 46.6269C48.7035 46.6269 49.0633 46.6269 49.603 46.6269C49.7829 46.6269 49.9628 46.6269 50.3226 46.6269C50.5025 46.6269 50.8623 46.6269 51.0422 46.6269C51.402 46.4478 51.5819 46.4478 51.7618 46.4478ZM23.3376 40.7164C23.3376 40.7164 23.5175 40.7164 23.6974 40.7164C23.8773 40.7164 23.8772 40.7164 24.0571 40.7164C24.237 40.7164 24.237 40.7164 24.4169 40.7164C24.7767 40.7164 25.3164 40.7164 25.8561 40.7164C26.036 40.7164 26.216 40.7164 26.5758 40.7164C26.9356 40.7164 27.2953 40.7164 27.6551 40.7164C27.835 40.7164 28.0149 40.7164 28.0149 40.7164C28.3747 40.8955 28.1949 41.4328 28.1949 41.7911C28.1949 41.9702 28.1949 41.9702 28.1949 42.1493C28.1949 42.8657 28.1949 43.7612 28.1949 44.4776V45.0149H27.4753C27.1155 45.0149 26.5758 45.0149 26.0361 45.0149C25.4964 45.0149 24.7768 45.0149 24.2371 45.0149C23.6974 45.0149 23.3375 45.0149 22.9777 45.0149C22.9777 44.1194 22.9777 43.0448 22.9777 42.1493V41.9702C22.9777 41.7911 22.9777 41.7911 22.9777 41.6119C22.9777 41.2537 22.9778 40.8955 23.3376 40.7164ZM26.7556 28.8955C26.5757 28.8955 26.3958 28.8955 26.2159 28.8955C26.036 28.8955 25.8561 28.8955 25.8561 28.8955H25.3164C24.7767 28.8955 24.4169 28.8955 23.8772 28.8955C23.1576 28.8955 22.9777 28.7164 22.9777 28.1791C24.5968 28.1791 26.2159 28.1791 28.0149 28.1791C28.0149 28.5373 28.015 28.7164 27.8351 28.8955C27.6552 28.8955 26.9355 28.8955 26.7556 28.8955ZM27.4753 39.2836C27.2954 39.2836 27.1155 39.2836 26.9356 39.2836C26.7557 39.2836 26.3958 39.2836 26.2159 39.2836H26.0361C25.8562 39.2836 25.4963 39.2836 25.3164 39.2836C24.9566 39.2836 24.5968 39.2836 24.4169 39.2836C24.237 39.2836 24.0571 39.2836 23.8772 39.2836C23.8772 37.4925 23.8772 35.8806 23.8772 34.2687C23.8772 33.0149 23.8772 31.5821 23.8772 30.1493C24.0571 30.1493 24.0572 30.1493 24.2371 30.1493C24.7768 30.1493 25.1365 30.1493 25.6762 30.1493C26.036 30.1493 26.216 30.1493 26.3959 30.1493H26.7556C26.9355 30.1493 27.1155 30.1493 27.4753 30.1493V32.8358C27.2954 34.9851 27.4753 37.1343 27.4753 39.2836ZM29.2743 28.1791C29.2743 28 29.2743 28 29.2743 28.1791C30.5336 28.1791 31.7929 28.1791 33.2321 28C33.2321 28.7164 33.232 29.6119 33.9516 29.9702C33.9516 31.403 33.9516 32.8358 33.9516 34.2687C33.9516 36.0597 33.9516 37.8507 33.9516 39.4627C33.232 39.8209 33.2321 40.1791 33.2321 40.8955C33.2321 41.9702 33.2321 43.2239 33.2321 44.2985V44.4776C33.2321 44.6567 33.2321 44.8358 33.2321 45.0149C31.9728 45.0149 30.7134 45.0149 29.4541 45.0149C29.4541 44.6567 29.4541 44.4776 29.4541 44.1194C29.4541 43.0448 29.4541 41.9702 29.4541 40.8955C29.4541 40.1791 29.2743 39.8209 28.7346 39.4627C28.7346 37.1343 28.5546 34.806 28.5546 32.4776V29.791C28.7345 29.791 28.9145 29.6119 29.0944 29.4328C29.4542 29.2537 29.4542 28.5373 29.2743 28.1791ZM34.6713 40.7164C34.6713 40.7164 34.8512 40.7164 35.0311 40.7164C35.211 40.7164 35.211 40.7164 35.3909 40.7164C35.5708 40.7164 35.5707 40.7164 35.7506 40.7164C36.1104 40.7164 36.6502 40.7164 37.1899 40.7164C37.3698 40.7164 37.5497 40.7164 37.9095 40.7164C38.2693 40.7164 38.6291 40.7164 38.9889 40.7164C39.1688 40.7164 39.3486 40.7164 39.3486 40.7164C39.7084 40.8955 39.5286 41.4328 39.5286 41.7911C39.5286 41.9702 39.5286 41.9702 39.5286 42.1493C39.5286 42.8657 39.5286 43.7612 39.5286 44.4776V45.3731C37.7296 45.3731 36.1105 45.3731 34.4914 45.3731C34.4914 44.4776 34.4914 43.5821 34.4914 42.6866V42.3284C34.4914 42.1493 34.4914 42.1493 34.4914 41.9702C34.4914 41.2537 34.4914 40.8955 34.6713 40.7164ZM35.211 30.1493C35.3909 30.1493 35.3909 30.1493 35.5708 30.1493C36.1105 30.1493 36.4703 30.1493 37.01 30.1493C37.3698 30.1493 37.5497 30.1493 37.7296 30.1493H38.0894C38.2693 30.1493 38.4492 30.1493 38.809 30.1493V32.6567C38.809 34.806 38.809 37.1343 38.9889 39.4627C38.809 39.4627 38.629 39.4627 38.4491 39.4627C38.2692 39.4627 37.9095 39.4627 37.7296 39.4627H37.5496C37.3697 39.4627 37.01 39.4627 36.8301 39.4627C36.4703 39.4627 36.1105 39.4627 35.9306 39.4627C35.7507 39.4627 35.5708 39.4627 35.3909 39.4627C35.3909 37.8507 35.3909 36.0597 35.3909 34.4478C35.211 33.0149 35.211 31.5821 35.211 30.1493ZM38.2693 28.8955C38.0894 28.8955 37.9095 28.8955 37.7296 28.8955C37.5497 28.8955 37.3698 28.8955 37.3698 28.8955H36.8301C36.2904 28.8955 35.9306 28.8955 35.3909 28.8955C35.0311 28.8955 34.6713 28.8955 34.6713 28.7164C34.4914 28.5373 34.4914 28.3582 34.4914 28C35.9306 28 37.1899 28 38.6291 28H39.5286C39.5286 28.3582 39.5285 28.7164 39.3486 28.7164C38.9888 28.8955 38.4492 28.8955 38.2693 28.8955ZM40.7879 28C42.0472 27.8209 43.3065 27.8209 44.7457 28C44.7457 28.7164 44.7457 29.4328 45.4653 29.9702C45.4653 31.403 45.4653 32.8358 45.4653 34.2687C45.4653 35.8806 45.4653 37.8507 45.4653 39.6418C44.7457 40 44.7457 40.3582 44.7457 41.0746C44.7457 42.1493 44.7457 43.403 44.7457 44.4776C44.7457 44.6567 44.7457 45.0149 44.7457 45.3731H44.3859C43.3065 45.3731 42.227 45.3731 41.1476 45.3731H40.9678C40.9678 45.0149 40.9678 44.6567 40.9678 44.2985C40.9678 43.2239 40.9678 42.1493 40.9678 41.0746C40.9678 40.3582 40.7878 40 40.2481 39.6418C40.2481 37.3134 40.0683 34.9851 40.0683 32.8358V29.9702C40.2482 29.9702 40.4281 29.791 40.608 29.6119C40.7879 29.2537 40.7879 28.5373 40.7879 28ZM49.603 28.8955C49.4231 28.8955 49.2432 28.8955 49.0633 28.8955C48.8834 28.8955 48.7035 28.8955 48.7035 28.8955H48.1638C47.6241 28.8955 47.2643 28.8955 46.7246 28.8955C46.1849 28.8955 46.005 28.7164 46.005 28.7164C46.005 28.5373 45.8251 28.3582 45.8251 28H46.3648C46.9045 28 47.2643 28 47.804 28C48.7035 28 49.603 28 50.3226 28H50.8623C50.8623 28.3582 50.8624 28.5373 50.6825 28.7164C50.5026 28.8955 49.7829 28.8955 49.603 28.8955ZM50.3226 39.2836C50.1427 39.2836 49.9629 39.2836 49.783 39.2836C49.6031 39.2836 49.2432 39.2836 49.0633 39.2836H48.8835C48.7036 39.2836 48.3437 39.2836 48.1638 39.2836C47.804 39.2836 47.4442 39.2836 47.2643 39.2836C47.0844 39.2836 46.9045 39.2836 46.7246 39.2836C46.7246 37.6716 46.7246 35.8806 46.7246 34.2687C46.7246 33.0149 46.7246 31.5821 46.7246 30.1493C46.9045 30.1493 46.9045 30.1493 47.0844 30.1493C47.6242 30.1493 47.9839 30.1493 48.5236 30.1493C48.8834 30.1493 49.0633 30.1493 49.2432 30.1493H49.603C49.7829 30.1493 49.9628 30.1493 50.3226 30.1493V32.6567C50.1427 34.806 50.1427 37.1343 50.3226 39.2836ZM46.1849 40.7164C46.1849 40.7164 46.3648 40.7164 46.5447 40.7164C46.7246 40.7164 46.7246 40.7164 46.9045 40.7164C47.0844 40.7164 47.0844 40.7164 47.2643 40.7164C47.6241 40.7164 48.1638 40.7164 48.7035 40.7164C48.8834 40.7164 49.0633 40.7164 49.4231 40.7164C49.7829 40.7164 50.1427 40.7164 50.5025 40.7164C50.6824 40.7164 50.8623 40.7164 50.8623 40.7164C51.2221 40.8955 51.0422 41.4328 51.0422 41.7911C51.0422 41.9702 51.0422 41.9702 51.0422 42.1493C51.0422 42.8657 51.0422 43.5821 51.0422 44.4776V45.194C50.6824 45.194 50.1428 45.194 49.783 45.194C49.4232 45.194 49.0633 45.194 48.7035 45.194C48.3437 45.194 47.9839 45.194 47.6241 45.194C47.0844 45.194 46.7246 45.194 46.005 45.194C46.005 44.2985 46.005 43.403 46.005 42.5075V42.1493C46.005 41.9702 46.005 41.9702 46.005 41.7911C45.8251 41.2537 45.8251 40.8955 46.1849 40.7164ZM51.7618 26.9254C51.402 26.9254 51.0423 26.9254 50.6825 26.9254C50.3227 26.9254 50.1428 26.9254 49.783 26.9254C48.1639 26.9254 46.5447 26.9254 44.9256 26.9254C43.3065 26.9254 41.5075 26.9254 39.8884 26.9254H39.3486C36.4702 26.9254 33.5919 26.9254 30.8934 26.9254L21.3586 27.1045H21.1787C20.9988 27.1045 20.4591 27.1045 20.4591 26.9254C20.4591 26.9254 20.4592 26.7463 20.9989 26.0299C20.9989 25.8507 21.3587 25.8508 21.5386 25.6716C21.7185 25.6716 21.7185 25.4925 21.8984 25.4925L23.6974 24.4179C25.1366 23.5224 26.3958 22.806 27.6551 22.0896C30.1737 20.6567 32.6924 19.403 35.0311 18.1492C35.211 18.1492 35.3909 17.9701 35.5708 17.791C36.1105 17.4328 36.6502 17.2537 37.01 17.2537H37.1899C37.5497 17.2537 37.9095 17.6119 38.2693 17.791C38.4492 17.9701 38.6291 17.9701 38.809 18.1492C39.3487 18.5075 39.8884 18.6866 40.4281 19.0448C41.1477 19.403 41.6874 19.7612 42.407 20.1194C44.9256 21.5522 47.4442 23.1642 49.603 24.4179C50.5025 24.9552 51.4021 25.4925 52.4815 26.209H52.6613C52.8412 26.3881 53.201 26.5672 53.201 26.5672C53.201 26.5672 53.0211 26.7463 52.8412 26.7463C52.4814 26.9254 52.3015 26.9254 51.7618 26.9254Z" fill="#002B4C"/>
<path d="M38.2175 20.2727C37.8355 20.1364 37.4535 20 36.9442 20C35.7983 20 34.525 20.5455 34.143 22.0455C33.6337 23.6818 34.5249 25.3182 36.1802 25.8636C36.4348 26 36.8168 26 37.0715 26C38.4721 26 39.4907 25.3182 39.8727 24.0909C40 23.8182 40 23.4091 40 23.1364C40 21.9091 39.3634 20.8182 38.2175 20.2727ZM36.9442 21.0909C37.3262 21.0909 37.7081 21.2273 38.0901 21.3636C38.8541 21.9091 39.2361 22.8636 38.9814 23.8182C38.7267 24.6364 38.0901 25.0455 37.0715 25.0455C36.8168 25.0455 36.5622 25.0455 36.3076 24.9091C35.2889 24.6364 34.7796 23.6818 34.9069 22.5909C35.1616 21.5 36.1802 21.0909 36.9442 21.0909Z" fill="#002B4C"/>
</svg>
